<svg xmlns="http://www.w3.org/2000/svg" width="338" height="187" fill="none"><g clip-path="url(#a)"><path d="M36.788 176.968s-32.215-27.404-25.941-72.525c6.447-46.722 40.554-71.587 85.019-62.149 36.346 7.714 59.779 2.74 97.355-19.297 61.634-36.134 141.128 2.999 120.298 73.042-10.059 33.901 32.148 50.65-3.18 81.005l-273.551-.076Z" fill="#DDE8FC"></path><path d="m320.245 44.364-48.577-23.16.423-.968 48.586 23.16-.432.968Z" fill="#CACACB"></path><path d="M309.292 38.309h-1.019v138.927h1.019V38.309Z" fill="#CACACB"></path><path d="M308.783 93.701h.211a1.21 1.21 0 0 0 1.211-1.207V76.262a1.21 1.21 0 0 0-1.211-1.207h-.211c-.668 0-1.21.54-1.21 1.207v16.232c0 .667.542 1.207 1.21 1.207Z" fill="#F5F5F5"></path><path d="m273.052 20.658-1.365 2.433-6.033-3.65 1.537-2.501a3.36 3.36 0 0 1 4.506-1.217 3.642 3.642 0 0 1 1.355 4.935Z" fill="#D5D6D5"></path><path d="m271.88 22.134 3.449 16.94-24.98-14.707 15.305-4.926 6.226 2.693Z" fill="#fff"></path><path d="M249.186 25.067c1.249-2.395 8.148-1.044 15.373 3.038 7.225 4.081 12.144 9.342 10.885 11.747-1.258 2.405-8.147 1.044-15.372-3.037-7.225-4.082-12.135-9.343-10.886-11.748ZM323.012 177.264h-28.823s4.295-4.542 14.633-4.101c10.337.441 14.19 4.101 14.19 4.101Z" fill="#CACACB"></path><path d="M306.833 38.328a1.913 1.913 0 0 0 1.268 1.68 1.928 1.928 0 0 0 2.05-.493 1.912 1.912 0 0 0-.343-2.912 1.927 1.927 0 0 0-1.054-.316 1.998 1.998 0 0 0-1.921 2.041Z" fill="#F5F5F5"></path><path d="m271.918 16.289 1.364-2.415-1.182-.46-1.085 2.54.903.335Z" fill="#D5D6D5"></path><path d="M265.654 19.297c1.233.093 2.442.395 3.574.891a11.339 11.339 0 0 1 2.978 2.252 2.883 2.883 0 0 0-.672-.958 7.544 7.544 0 0 0-2.191-1.59 7.132 7.132 0 0 0-2.584-.7 2.89 2.89 0 0 0-1.105.105Z" fill="#E0E0E0"></path><path d="M266.394 29.186v5.05a2.478 2.478 0 0 1-.548 1.61c-.624.737-1.922 1.322-4.525-.115-3.065-1.687-2.758-3.575-2.268-4.6.216-.428.549-.787.961-1.035l3.891-2.309 2.489 1.4Z" fill="#FAFBFB"></path><path d="M264.751 28.258a4.53 4.53 0 0 0-.289.594 15.932 15.932 0 0 1-.835 1.562c-.202.316-.423.66-.673 1.025a2.25 2.25 0 0 1-.423.48.565.565 0 0 1-.547.124.489.489 0 0 1-.298-.48.468.468 0 0 1 .384-.43c.242-.01.482.05.692.172.248.116.489.247.72.393.241.153.471.306.683.47.211.162.394.325.365.536a1.502 1.502 0 0 1-.26.651c-.134.154-.326.106-.451-.057a.622.622 0 0 1-.058-.585c.078-.209.175-.41.288-.603l.577-1.093.816-1.58a2.68 2.68 0 0 0 .269-.604c-.137.169-.256.352-.355.546l-.894 1.543-.605 1.073a3.344 3.344 0 0 0-.317.642c-.043.13-.066.265-.067.402.008.148.058.29.144.412a.663.663 0 0 0 .384.25.501.501 0 0 0 .452-.164c.093-.112.168-.238.221-.373.064-.14.106-.288.125-.441a.768.768 0 0 0-.144-.48 1.974 1.974 0 0 0-.337-.306 9.896 9.896 0 0 0-.701-.479 9.385 9.385 0 0 0-.74-.402 1.404 1.404 0 0 0-.845-.192.74.74 0 0 0-.489 1.116c.081.134.201.24.345.302a.78.78 0 0 0 .778-.172c.185-.153.344-.334.471-.537.24-.373.461-.728.643-1.054.3-.523.56-1.067.779-1.629.097-.2.161-.413.192-.632Z" fill="#E0E0E0"></path><path d="m175.168 22.795-4.093 15.283-25.585-6.813 4.083-15.283 10.751 11.048 14.844-4.235Z" fill="#48C6CE"></path><path d="m149.573 15.992 25.595 6.803-12.74 2.789a3.535 3.535 0 0 1-2.949-.776l-9.906-8.816Z" fill="#17868D"></path><path d="m137.208 3.162 7.004 7.503-12.567 11.66-7.004-7.492 9.781-2.089 2.786-9.582Z" fill="#48C6CE"></path><path d="m124.641 14.833 12.567-11.67-2.93 7.847a2.322 2.322 0 0 1-1.441 1.35l-8.196 2.473Z" fill="#17868D"></path><path d="m126.774 21.473 4.103 12.38-20.734 6.84-4.102-12.379 12.413 2.77 8.32-9.611Z" fill="#48C6CE"></path><path d="m106.041 28.314 20.781-6.841-7.571 7.521a3.01 3.01 0 0 1-2.383.796l-10.827-1.476Z" fill="#17868D"></path><path d="M130.473 176.307h3.228v-12.802h-3.228v12.802ZM89.726 176.307h3.229v-12.802h-3.229v12.802Z" fill="#D5D6D5"></path><path d="M109 176.307h3.228v-12.802H109v12.802ZM74.345 176.307h3.228v-12.802h-3.228v12.802Z" fill="#CACACB"></path><path d="M133.701 133.984H89.659v29.522h44.042v-29.522Z" fill="#D5D6D5"></path><path d="M89.66 133.984H73.777v29.522h15.881v-29.522Z" fill="#CACACB"></path><path d="M93.993 148.749H129.388v-9.487c-.231-.239-.068-.067-.116-.124l-35.452.048h-.068v9.457" fill="#fff"></path><path d="M109.989 144.045a1.55 1.55 0 0 0 .954 1.441 1.56 1.56 0 0 0 2.129-1.125 1.553 1.553 0 0 0-1.526-1.859 1.557 1.557 0 0 0-1.557 1.543Z" fill="#E0E0E0"></path><path d="m127.1 122.725-1.739 2.481s3.911 1.083 3.911 4.542c0 3.459-2.393 4.111-4.987 4.111-2.594 0-5.101-.757-4.996-4.216a5.595 5.595 0 0 1 3.363-4.791l-1.595-2.127h6.043Z" fill="#D5D6D5"></path><path d="M78.072 127.314v6.334h27.334a3.194 3.194 0 0 0 2.249-.929 3.155 3.155 0 0 0 .931-2.243 3.165 3.165 0 0 0-.934-2.236 3.187 3.187 0 0 0-2.246-.926" fill="#CACACB"></path><path d="M88.084 132.326H78.072v-3.679h10.012a.838.838 0 0 1 .835.833v2.022a.834.834 0 0 1-.836.824Z" fill="#FAFBFB"></path><path d="M78.072 121.221v6.343h27.334a3.176 3.176 0 0 0 2.249-.929 3.165 3.165 0 0 0 0-4.485 3.18 3.18 0 0 0-2.249-.929H78.072Z" fill="#D5D6D5"></path><path d="M88.084 126.233H78.072v-3.68h10.012a.838.838 0 0 1 .835.834v2.022a.83.83 0 0 1-.835.833v-.009Z" fill="#CACACB"></path><path d="M52.333 148.404c-4.602-3.775-5.207-10.166-4.573-15.81a6.26 6.26 0 0 1 .596-2.75 1.925 1.925 0 0 1 2.43-.805c.682.383.961 1.226 1.269 1.916a5.509 5.509 0 0 0 2.056 2.29 2.113 2.113 0 0 0 1.922.336c.854-.393 1.037-1.505 1.104-2.444.125-1.763.26-3.516.384-5.26a8.717 8.717 0 0 1 .5-2.779 2.881 2.881 0 0 1 1.998-1.82 1.788 1.788 0 0 1 2.114 1.37c.002.394-.02.787-.067 1.178a.955.955 0 0 0 .509.959 1.154 1.154 0 0 0 1.066-.355 12.454 12.454 0 0 0 2.518-3.21 17.499 17.499 0 0 1 2.373-3.363 5.116 5.116 0 0 1 3.612-1.658 3.04 3.04 0 0 1 2.96 2.319c.24 1.351-.644 2.635-1.567 3.641a21.035 21.035 0 0 1-4.717 3.833c-.332.155-.607.41-.788.728-.26.613.288 1.284.894 1.533.71.219 1.44.36 2.18.422a2.118 2.118 0 0 1 1.72 1.245c.317.959-.576 1.917-1.422 2.53a18.082 18.082 0 0 1-5.572 2.654 6.194 6.194 0 0 0-2.056.805 1.746 1.746 0 0 0-.72 1.917 1.79 1.79 0 0 0 1.92.891 12.965 12.965 0 0 0 2.134-.623c1.335-.393 2.997-.173 3.737 1.015a2.97 2.97 0 0 1 .116 2.655 6.876 6.876 0 0 1-1.615 2.213 18.262 18.262 0 0 1-8.166 4.791 12.52 12.52 0 0 1-8.8-.46" fill="#E7515B"></path><path d="M60.673 159.672c0 .067-4.747.115-10.569.115-5.822 0-10.568 0-10.568-.115s4.736-.115 10.568-.115 10.569.048 10.569.115Z" fill="#455B64"></path><path d="M205.836 8.02v51.263h33.79V8.02h-33.79Z" fill="#E0E0E0"></path><path d="M207.22 9.83V57.5h30.898V9.83H207.22Z" fill="#FAFBFB"></path><path d="M220.613 46.673c-1.249-2.462-.308-5.298 1.028-7.579.172-.405.435-.766.768-1.054a.965.965 0 0 1 1.192.105c.156.328.216.694.173 1.054.013.487.166.96.442 1.361a.951.951 0 0 0 .759.508c.432 0 .72-.45.96-.834l1.153-2.165c.182-.402.429-.77.731-1.093a1.373 1.373 0 0 1 1.191-.402.837.837 0 0 1 .644.958 3.89 3.89 0 0 1-.25.489.46.46 0 0 0 0 .508.53.53 0 0 0 .519.057 6.065 6.065 0 0 0 1.681-.9 7.796 7.796 0 0 1 1.633-.959 2.334 2.334 0 0 1 1.845 0 1.42 1.42 0 0 1 .826 1.543 2.12 2.12 0 0 1-1.354 1.255 9.637 9.637 0 0 1-2.719.748.828.828 0 0 0-.481.163.6.6 0 0 0 .096.814c.261.226.545.425.846.594a.964.964 0 0 1 .499.843c-.048.489-.605.719-1.076.815a8.505 8.505 0 0 1-2.882.086 2.892 2.892 0 0 0-1.028 0 .817.817 0 0 0-.673.69.85.85 0 0 0 .635.738c.337.075.682.117 1.028.124a1.54 1.54 0 0 1 1.393 1.13 1.393 1.393 0 0 1-.452 1.16 3.21 3.21 0 0 1-1.095.633c-1.388.559-2.9.74-4.381.527a5.857 5.857 0 0 1-3.661-1.84" fill="#E7515B"></path><path d="M219.834 43.606c4.112-1.16 6.37-5.174 7.59-9.074a4.45 4.45 0 0 0 .404-1.974 1.39 1.39 0 0 0-1.364-1.226c-.558.057-.961.537-1.393.9a3.967 3.967 0 0 1-2.008.959 1.525 1.525 0 0 1-1.365-.336c-.451-.508-.25-1.293 0-1.916.423-1.188.846-2.376 1.278-3.564.256-.63.415-1.296.471-1.974a2.115 2.115 0 0 0-.778-1.773 1.282 1.282 0 0 0-1.778.288 5.636 5.636 0 0 0-.298.785.722.722 0 0 1-.615.498c-.288 0-.48-.287-.605-.536a9.253 9.253 0 0 1-.72-2.875 12.068 12.068 0 0 0-.596-2.874 3.638 3.638 0 0 0-1.922-2.137 2.212 2.212 0 0 0-2.623.67 3.284 3.284 0 0 0 0 2.875 14.908 14.908 0 0 0 1.98 3.833c.176.198.286.446.317.71 0 .478-.567.756-1.038.747a7.952 7.952 0 0 1-1.556-.355 1.533 1.533 0 0 0-1.49.326c-.49.556-.182 1.437.193 2.07a12.917 12.917 0 0 0 2.882 3.353c.436.304.813.684 1.114 1.121a1.243 1.243 0 0 1-.096 1.485 1.269 1.269 0 0 1-1.489 0 8.794 8.794 0 0 1-1.22-1.025 2.358 2.358 0 0 0-2.748-.412 2.143 2.143 0 0 0-.845 1.715c.01.66.154 1.313.422 1.917a12.931 12.931 0 0 0 3.968 5.519 8.97 8.97 0 0 0 5.909 2.242" fill="#629DD4"></path><path d="m214.762 16.883.048.076c0 .058.077.134.125.24.048.105.288.508.499.91a24.805 24.805 0 0 1 1.528 3.488c.269.757.528 1.6.788 2.51.259.91.538 1.917.788 2.923.261 1.08.466 2.175.614 3.277.077.575.125 1.169.164 1.763.038.594.077 1.207.125 1.82.168 2.312.21 4.631.125 6.947a30.29 30.29 0 0 1-.769 5.615 22.328 22.328 0 0 1-1.211 3.632c-.179.415-.323.735-.432.958l-.125.24v.086a.327.327 0 0 1 0-.077 1.96 1.96 0 0 1 .125-.24c.115-.21.269-.526.461-.958a21.1 21.1 0 0 0 1.249-3.631c.447-1.845.714-3.729.798-5.625a61.328 61.328 0 0 0-.116-6.966c-.048-.613-.086-1.217-.125-1.82a25.198 25.198 0 0 0-.163-1.763c-.149-1.11-.36-2.21-.634-3.296a57.008 57.008 0 0 0-.797-2.923 44.462 44.462 0 0 0-.807-2.52 23.47 23.47 0 0 0-1.567-3.478c-.211-.393-.393-.7-.509-.9l-.144-.23c-.019-.04-.029-.068-.038-.058Z" fill="#263238"></path><path d="m219.249 30.28.153-.25c.096-.172.231-.412.385-.718.317-.604.72-1.447 1.162-2.386.442-.94.855-1.782 1.182-2.376.154-.307.288-.547.384-.71l.135-.268c-.069.074-.13.154-.183.24-.106.163-.25.393-.413.69a32.203 32.203 0 0 0-1.22 2.366l-1.124 2.405-.346.729a.938.938 0 0 0-.115.278ZM211.543 25.871c.103.057.209.108.317.153.202.087.5.22.865.403.73.335 1.71.853 2.776 1.466a43.107 43.107 0 0 1 2.662 1.657c.336.22.605.403.788.537.092.074.192.138.297.192a3.09 3.09 0 0 0-.269-.23 12.22 12.22 0 0 0-.759-.575 34.46 34.46 0 0 0-2.661-1.696 30.738 30.738 0 0 0-2.796-1.437 13.952 13.952 0 0 0-.884-.364 1.468 1.468 0 0 0-.336-.106ZM219.633 40.656a.435.435 0 0 0 .096-.076l.24-.25c.211-.22.509-.536.874-.958a71.125 71.125 0 0 0 2.748-3.22c1.047-1.302 2.018-2.414 2.719-3.238l.846-.958c.096-.105.173-.192.23-.268l.077-.096-.096.077-.24.249c-.221.22-.519.536-.874.958a77.296 77.296 0 0 0-2.758 3.22 137.134 137.134 0 0 1-2.719 3.238l-.845.958-.221.268a.406.406 0 0 0-.077.096ZM209.919 33.327l.097.076.278.22 1.038.786c.884.662 2.085 1.6 3.411 2.635 1.325 1.035 2.536 1.917 3.42 2.597l1.066.757.298.201.106.058-.096-.086-.279-.211-1.037-.786-3.402-2.635c-1.326-1.035-2.546-1.916-3.43-2.597l-1.066-.757-.298-.2c-.067-.049-.106-.068-.106-.058Z" fill="#263238"></path><path d="M287.685 79.394c-.798.35-1.624.628-2.47.834-.833.279-1.688.487-2.555.623a14.985 14.985 0 0 1 2.469-.834 15.792 15.792 0 0 1 2.556-.623Z" fill="#E0E0E0"></path><path d="M223.745 159.117v18.167h2.796l3.757-18.368-6.553.201ZM249.167 159.117v18.167h2.796l3.756-18.368-6.552.201ZM280.959 159.117v18.167h-2.796l-3.757-18.368 6.553.201ZM298.82 159.117v18.167h-2.796l-3.757-18.368 6.553.201Z" fill="#CACACB"></path><path d="M241.212 119.169s-11.049-2.769-14.095.958c-3.045 3.728-3.372 39.286-3.372 39.286s19.725.307 20.09 0c.365-.307-2.623-40.244-2.623-40.244Z" fill="#CACACB"></path><path d="m298.253 152.88.49-61.698c.057-7.963-7.369-14.43-16.526-14.373h-26.046c-9.108 0-16.439 6.525-16.228 14.45l1.672 61.649 56.638-.028Z" fill="#D5D6D5"></path><path d="M298.253 152.88s-10.021-12.878-21.839-13.3c-11.817-.422-37.239 0-37.239 0s-11.27.374-12.058 12.514v7.167h71.097l.039-6.381Z" fill="#D5D6D5"></path><path d="m275.165 139.943-29.207-.134c-3.056 0-6.524-.336-9.474.393-8.704 2.146-9.982 11.833-9.29 18.512 0 .268-.461.268-.49 0-.586-5.605.096-13.415 5.601-17.171 3.18-2.156 6.87-2.185 10.665-2.175l32.186.153c.056 0 .109.023.149.062a.21.21 0 0 1 0 .298.21.21 0 0 1-.149.062h.009ZM247.985 78.715s.25-.086.75-.201l.961-.134c.374 0 .807-.087 1.287-.115 1.922-.144 4.746-.24 8.224-.25h5.688c2.046 0 4.227 0 6.524.26 1.167.123 2.328.305 3.478.545 1.196.242 2.365.604 3.487 1.083a13.277 13.277 0 0 1 3.065 2.003 11.51 11.51 0 0 1 2.373 2.74c.307.508.549 1.052.721 1.62.147.553.25 1.117.307 1.686.144 1.121.269 2.223.394 3.306.24 2.165.423 4.254.567 6.247.288 3.986.413 7.589.5 10.607.086 3.019.115 5.462.134 7.158v2.415c.004.057.004.115 0 .172v-.671c0-.46 0-1.111-.067-1.916-.048-1.706-.125-4.139-.212-7.158a232.227 232.227 0 0 0-.557-10.597 185.04 185.04 0 0 0-.576-6.238c-.125-1.083-.25-2.185-.404-3.296a9.617 9.617 0 0 0-.298-1.658 7.211 7.211 0 0 0-.701-1.58 11.512 11.512 0 0 0-2.325-2.684 13.244 13.244 0 0 0-3.007-1.974 17.34 17.34 0 0 0-3.517-1.044 34.285 34.285 0 0 0-3.449-.546c-2.277-.269-4.458-.23-6.504-.278-2.047-.048-3.939 0-5.678 0-3.469 0-6.284.057-8.215.172l-1.288.106-.96.115c-.25 0-.433.096-.567.115l-.135-.01Z" fill="#fff"></path><path d="M289.625 94.938a9.508 9.508 0 0 1-1.979.718c-.668.245-1.361.419-2.066.518a10.526 10.526 0 0 1 1.979-.72 10.322 10.322 0 0 1 2.066-.516ZM287.434 98.483a3.957 3.957 0 0 1-1.854-.067c.309-.106.639-.133.961-.077.305-.016.609.033.893.144ZM270.726 97.305s.087-.058.269-.067c.266-.008.526.073.74.23a.872.872 0 0 1 .365.958 1.227 1.227 0 0 1-1.095.795 1.31 1.31 0 0 1-1.21-.651.954.954 0 0 1 .086-.958c.146-.21.354-.367.596-.45a.48.48 0 0 1 .278 0 1.692 1.692 0 0 0-.73.564.824.824 0 0 0 0 .844 1.153 1.153 0 0 0 .961.527 1.035 1.035 0 0 0 .884-.642.73.73 0 0 0-.26-.796 1.086 1.086 0 0 0-.624-.258c-.163-.096-.26-.077-.26-.096Z" fill="#fff"></path><path d="M271.678 91.594s-.317.249-.74.7a4.274 4.274 0 0 0-1.086 2.021 4.031 4.031 0 0 0 .192 2.233c.212.555.442.862.404.881a2.202 2.202 0 0 1-.567-.834 3.682 3.682 0 0 1-.269-2.318c.178-.8.593-1.528 1.191-2.09.247-.256.545-.458.875-.593ZM271.034 105.305a2.806 2.806 0 0 1-.721-.853 5.58 5.58 0 0 1-.884-2.434 4.954 4.954 0 0 1 0-1.418c.055-.405.229-.785.5-1.092.206-.216.469-.368.759-.441.107-.03.22-.03.327 0-.371.08-.707.275-.961.556a3.297 3.297 0 0 0-.432 2.395c.103.841.374 1.652.797 2.386.375.556.653.882.615.901ZM266.999 98.05a1.57 1.57 0 0 1 1.23-.42 1.531 1.531 0 0 1 1.23.411 7.31 7.31 0 0 0-1.23-.201c-.415.039-.826.11-1.23.21ZM254.153 97.305s.087-.058.279-.067c.262-.007.519.074.73.23a.863.863 0 0 1 .365.958 1.204 1.204 0 0 1-1.086.795 1.308 1.308 0 0 1-1.22-.651.964.964 0 0 1 .087-.958 1.21 1.21 0 0 1 .595-.45.484.484 0 0 1 .279 0c-.287.118-.537.314-.721.564a.787.787 0 0 0 0 .844 1.128 1.128 0 0 0 .961.527 1.03 1.03 0 0 0 .884-.642.724.724 0 0 0-.259-.795 1.086 1.086 0 0 0-.625-.26c-.163-.095-.269-.076-.269-.095Z" fill="#fff"></path><path d="M255.105 91.594s-.317.249-.74.7a4.274 4.274 0 0 0-1.086 2.021 4.031 4.031 0 0 0 .192 2.233c.212.555.442.862.414.881a2.034 2.034 0 0 1-.577-.834 3.746 3.746 0 0 1-.269-2.318c.181-.801.6-1.529 1.201-2.09.243-.256.537-.459.865-.593ZM254.47 105.305a2.889 2.889 0 0 1-.73-.853 5.567 5.567 0 0 1-.884-2.434 4.954 4.954 0 0 1 0-1.418c.059-.404.232-.783.5-1.092.207-.214.47-.367.759-.441.11-.03.226-.03.336 0a1.83 1.83 0 0 0-.961.556 3.251 3.251 0 0 0-.422 2.395c.1.84.368 1.651.787 2.386.366.556.644.882.615.901ZM250.435 98.052a1.52 1.52 0 0 1 1.22-.421 1.56 1.56 0 0 1 1.24.412 7.786 7.786 0 0 0-1.23-.202c-.415.04-.826.11-1.23.211Z" fill="#fff"></path><path d="M297.955 118.759s-16.9-3.833-19.955 1.197c-3.056 5.031-3.594 39.458-3.594 39.458s24.404.777 24.462-.115c.057-.891-.913-40.54-.913-40.54Z" fill="#F5F5F5"></path><path d="M298.868 118.594s-11.164-2.501-14.21 1.198c-3.046 3.698-3.843 39.784-3.843 39.784s17.803.46 18.168.153c.365-.306-.115-41.135-.115-41.135Z" fill="#D5D6D5"></path><path d="M292.334 136.58s0-.086.212-.096a.581.581 0 0 1 .538.307c.117.255.151.54.096.814a.728.728 0 0 1-.269.47.806.806 0 0 1-.634.144.823.823 0 0 1-.732-.824c0-.116.023-.23.069-.336.148-.301.401-.539.711-.671v.087c-.192-.077-.288-.115-.279-.134.01-.02.115 0 .317 0h.096l-.086.067a1.633 1.633 0 0 0-.577.651.742.742 0 0 0 0 .537.608.608 0 0 0 .49.354.532.532 0 0 0 .559-.232.523.523 0 0 0 .075-.199 1.47 1.47 0 0 0 0-.728.442.442 0 0 0-.152-.193.443.443 0 0 0-.232-.085c-.125.038-.192.086-.202.067Z" fill="#E0E0E0"></path><path d="M289.193 130.035c.27.261.502.558.692.882a19.023 19.023 0 0 1 2.363 4.714c.137.334.225.685.26 1.044a6.87 6.87 0 0 1-.433-.958 31.519 31.519 0 0 0-1.066-2.386c-.461-.92-.961-1.724-1.268-2.309a5.731 5.731 0 0 1-.548-.987ZM295.822 130.639a4.86 4.86 0 0 1-.432.91c-.289.546-.692 1.303-1.115 2.146-.423.844-.778 1.62-1.038 2.175-.121.318-.279.62-.47.901.063-.331.166-.652.307-.958a24.1 24.1 0 0 1 .961-2.214c.413-.843.845-1.6 1.172-2.127.172-.301.378-.58.615-.833ZM289.193 148.328a1.197 1.197 0 0 1 0-.422c0-.268.096-.651.182-1.121a54.964 54.964 0 0 1 1.893-7.301c.154-.46.288-.824.394-1.083.041-.135.099-.264.173-.383a9.535 9.535 0 0 1-.394 1.504c-.269.958-.634 2.213-.961 3.631-.326 1.419-.672 2.722-.893 3.661a10.27 10.27 0 0 1-.394 1.514ZM295.803 144.37a5.635 5.635 0 0 1-.404-.958 30.462 30.462 0 0 0-.961-2.262 40.383 40.383 0 0 0-1.133-2.204 5.1 5.1 0 0 1-.471-.958c.246.258.459.544.634.853.445.703.847 1.432 1.201 2.185.352.745.654 1.514.903 2.299.126.336.203.688.231 1.045ZM163.716 47.191h-53.025v65.857h53.025V47.191Z" fill="#fff"></path><path d="M116.513 89.965h42.956V52.46h-42.956v37.504Z" fill="#C7E2F6"></path><path d="M155.059 83.736h1.413v-.44h-1.413v.44ZM151.485 86.094h1.807v-.441h-1.807v.44ZM145.202 86.094h1.806v-.441h-1.806v.44ZM138.928 86.094h1.806v-.441h-1.806v.44ZM132.644 86.094h1.807v-.441h-1.807v.44ZM126.37 86.094h1.807v-.441h-1.807v.44ZM120.097 86.094h1.806v-.441h-1.806v.44ZM155.059 77.824h1.413v-.44h-1.413v.44ZM155.059 66.719h1.413v-.441h-1.413v.44ZM155.059 61.133h1.413v-.441h-1.413v.44ZM154.982 72.275h1.413v-.44h-1.413v.44ZM120.154 83.736h34.261V57.117 83.64l.087-.096h-34.175l-.173.192Z" fill="#263238"></path><path d="M119.751 72.055s7.436.096 16.612.096c9.175 0 16.602 0 16.602-.096s-7.436-.096-16.602-.096-16.612.038-16.612.096ZM119.751 66.498s7.436.096 16.612.096c9.175 0 16.602 0 16.602-.096s-7.436-.096-16.602-.096-16.612.039-16.612.096ZM119.751 60.912c0 .058 7.436.096 16.612.096 9.175 0 16.602 0 16.602-.096s-7.436-.096-16.602-.096-16.612.039-16.612.096ZM119.751 77.613s7.436.096 16.612.096c9.175 0 16.602 0 16.602-.096s-7.436-.105-16.602-.105-16.612.048-16.612.105Z" fill="#263238"></path><path d="M152.619 82.537v-4.925l-2.825-4.79-1.922 1.6-3.929-6.65-2.325 1.772-3.228-6.132-2.614 2.328-3.939-8.134-4.237 9.093-3.42-4.552-4.035-1.255v21.645h32.474Z" fill="#455B64"></path><path d="M119.751 59.16h4.199c.903 1.283 2.017 2.874 3.314 4.714h8.34-.077c1.095 1.974 2.277 4.11 3.487 6.324l3.43 6.2.068.124.077-.115 4.496-6.707h-.125l4.093 6.956c.49.824.884 1.466 1.153 1.916l.307.499.106.163-.086-.183-.289-.507c-.269-.46-.643-1.112-1.114-1.917l-4.064-6.995-.058-.095-.058.095-4.515 6.708h.144l-3.43-6.21-3.488-6.314h-8.349.048l-3.343-4.695h-4.199l-.067.038Z" fill="#E7515B"></path><path d="M145.644 71.251a.33.33 0 0 0 .21.295.327.327 0 0 0 .414-.438.326.326 0 0 0-.624.143ZM136.065 65.329a.334.334 0 0 0 .006.14.33.33 0 0 0 .454.21.33.33 0 0 0 .177-.21.334.334 0 0 0 .007-.14.334.334 0 0 0-.072-.266.33.33 0 0 0-.388-.085.33.33 0 0 0-.178.21.333.333 0 0 0-.006.14ZM128.619 63.873a.326.326 0 0 0 .561.217.324.324 0 0 0 .066-.354.329.329 0 0 0-.428-.173.324.324 0 0 0-.199.31Z" fill="#E7515B"></path><path d="M118.454 95.541c0 .048 9.069.096 20.243.096 11.174 0 20.244 0 20.244-.096s-9.06-.105-20.244-.105c-11.183 0-20.243.047-20.243.105ZM118.454 97.918c0 .058 9.069.096 20.243.096 11.174 0 20.244 0 20.244-.096s-9.06-.096-20.244-.096c-11.183 0-20.243.048-20.243.096ZM118.454 100.303s9.069.096 20.243.096c11.174 0 20.244 0 20.244-.096s-9.06-.096-20.244-.096c-11.183 0-20.243.038-20.243.096ZM118.454 102.68c0 .058 9.069.105 20.243.105 11.174 0 20.244 0 20.244-.105s-9.06-.096-20.244-.096c-11.183 0-20.243.048-20.243.096Z" fill="#263238"></path><path d="M151.043 83.927a13.504 13.504 0 0 1-2.796-.345c-.48-.105-.586-.163-1.335-.335-.605-.144-1.095-.25-1.787-.46-.529-.153-.961-.297-1.115-.633a.6.6 0 0 1-.077-.498.587.587 0 0 1 .221-.297 1.918 1.918 0 0 1-.038-.872c.054-.43.231-.836.509-1.169l-1.114-.642a6.085 6.085 0 0 1-1.192-.776c-.163-.134-.701-.594-.605-.738.096-.143.144-.096.817.087.489.109.966.27 1.422.479a9.423 9.423 0 0 0 2.075.642c.125-.125.355-.355.596-.317.117.03.221.098.297.192.212.201.462.335.673.527.392.341.803.661 1.23.958.514.322 1.09.53 1.691.614l.125.335c.105 1.102.259 2.175.403 3.248Z" fill="#FBC6A5"></path><path d="M192.597 48.695c.491-.963.89-1.97 1.191-3.009.49-1.285.734-2.65.72-4.024a8.16 8.16 0 0 0-1.191-3.756 2.768 2.768 0 0 0 .471-2.77 2.583 2.583 0 0 0-3.344-1.255 3.463 3.463 0 0 0-2.632-1.255 3.274 3.274 0 0 0-1.922.757 3.68 3.68 0 0 0-1.484-1.55 3.698 3.698 0 0 0-2.099-.462c-2.191.24-3.036 2.558-3.113 2.769a5.333 5.333 0 0 0 .48 4.015c.384.843.961 2.146 2.152 2.51.702.21 1.595-.105 3.353-.757 1.759-.651 2.028-.958 2.623-.747.74.23 1.096.958 1.672 2.252a19.474 19.474 0 0 1 1.201 4.014c.192.834.442 1.917.711 3.268l-6.918 5.27c-.076 1.16-.153 2.328-.24 3.516a264.165 264.165 0 0 1-.24 3.009 5.926 5.926 0 0 0 4.064-1.754c1.922-2.04.846-4.541 3.113-7.78a17.14 17.14 0 0 0 1.432-2.261Z" fill="#0D1329"></path><path d="M180.885 40.157a90.386 90.386 0 0 0-.26 10.29 5.74 5.74 0 0 0 .711 2.76c.096.173 1.605 2.664 4.304 2.51a4.998 4.998 0 0 0 3.843-2.51 8.845 8.845 0 0 1-1.172 3.268 8.64 8.64 0 0 1-4.304 3.516c-.077.336-.154.67-.24.958.403 1.246.797 2.501 1.201 3.757l7.686-6.267-.721-7.78a1.92 1.92 0 0 0 1.201-.508c.846-.853.702-2.683 0-3.01-.701-.325-1.556.633-1.681.748a51.965 51.965 0 0 0-.711-2.76 39.932 39.932 0 0 0-.72-2.26 14.126 14.126 0 0 0-.75-1.668c-.538-1.006-.961-1.773-1.681-2.002-.404-.135-1.153.153-2.623.747a6.251 6.251 0 0 1-2.392.757 3.346 3.346 0 0 1-1.691-.546Z" fill="#FBC6A7"></path><path d="M181.836 46.185c-.197.6-.435 1.186-.711 1.754-.215.432-.456.851-.721 1.255h1.432v-3.009ZM191.876 49.193c-.086 0-.048-.575.24-.958.068-.096.413-.613.721-.508a.603.603 0 0 1 .24.757c-.125.182-.375 0-.72.25-.346.248-.404.488-.481.459Z" fill="#CF5F49"></path><path d="M183.709 51.321a8.099 8.099 0 0 0-2.882 0 1.617 1.617 0 0 1 1.778-1.39 1.547 1.547 0 0 1 1.104 1.39Z" fill="#fff"></path><path d="M183.162 42.103a1.02 1.02 0 0 1 1.133-.393c.189.093.361.216.51.364l.576.489a.202.202 0 0 1 .049.195.2.2 0 0 1-.145.14.762.762 0 0 1-.5-.115 3.058 3.058 0 0 1-.365-.335 1.106 1.106 0 0 0-.903-.173.204.204 0 1 1-.163-.373 1.222 1.222 0 0 1 1.191 0c.24.124 0 .479-.221.354a.77.77 0 0 0-.759 0l-.163-.373a1.75 1.75 0 0 1 1.085.115c.145.083.275.19.385.316.067.067.192.21.307.191l-.096.336-.471-.403a2.853 2.853 0 0 0-.413-.345.402.402 0 0 0-.365 0c-.149.08-.283.188-.394.317-.182.172-.461-.096-.278-.269v-.038ZM181.634 42.754a4.015 4.015 0 0 0-.375-.325l-.105-.068-.212-.124.298-.163a1.969 1.969 0 0 0 0 .326c.01.024.01.052 0 .076v.163l-.24-.134c.18-.069.375-.095.567-.077l-.106.355a2.193 2.193 0 0 1-.605-.374.176.176 0 0 1-.059-.134.175.175 0 0 1 .059-.134.204.204 0 0 1 .279 0l.134.105a.2.2 0 0 1 0 .278.231.231 0 0 1-.288 0l-.125-.115.279-.268.067.048.134.096c.092.055.189.103.289.144a.202.202 0 0 1 .096.22.212.212 0 0 1-.193.134h-.461a.276.276 0 0 1-.153 0 .221.221 0 0 1-.097-.115 2.23 2.23 0 0 1-.067-.709.216.216 0 0 1 .03-.092.214.214 0 0 1 .066-.07.192.192 0 0 1 .202 0c.301.174.576.39.817.641a.175.175 0 0 1 .039.192.167.167 0 0 1-.039.057.194.194 0 0 1-.26 0l.029.067ZM182.143 45.17a1.788 1.788 0 0 1 .663-1.285c.398-.276.87-.426 1.355-.43.961-.049 2.104 0 2.642.871a2.21 2.21 0 0 1-.356 2.616 2.679 2.679 0 0 1-2.757.958 2.581 2.581 0 0 1-1.537-2.76c0-.124.211-.124.202 0a2.509 2.509 0 0 0 1.047 2.377c.383.247.85.333 1.297.24a3.176 3.176 0 0 0 1.258-.69 2.19 2.19 0 0 0 .808-2.31c-.289-.9-1.259-1.092-2.114-1.13a3.103 3.103 0 0 0-1.422.21 1.576 1.576 0 0 0-.894 1.303c0 .115-.211.115-.192 0v.03Z" fill="#0D1329"></path><path d="M181.961 45.093h-.058a.21.21 0 0 1-.134 0 .187.187 0 0 1-.067-.032.173.173 0 0 1-.048-.054.206.206 0 0 1 0-.135.226.226 0 0 1 .086-.105.38.38 0 0 1 .288 0 .302.302 0 0 1 .116 0h.067a.182.182 0 0 1 .048.067c.004.01.007.022.007.034a.096.096 0 0 1-.007.033.152.152 0 0 1 0 .067.175.175 0 0 1-.077.106.192.192 0 0 1-.144 0s-.048 0-.067-.058l-.01.077Z" fill="#0D1329"></path><path d="M181.586 44.69a1.032 1.032 0 0 0-.222-.796 1.036 1.036 0 0 0-.739-.373c-.672-.048-.893.651-.96 1.159a3.24 3.24 0 0 0 .134 1.763c.111.263.303.485.548.633a.438.438 0 0 0 .49.066.752.752 0 0 0 .298-.325 5.048 5.048 0 0 0 .432-2.022c0-.134.221-.134.211 0a6.227 6.227 0 0 1-.192 1.198 3.02 3.02 0 0 1-.384 1.063.719.719 0 0 1-.74.336 1.525 1.525 0 0 1-.749-.594 3.021 3.021 0 0 1-.279-2.166c.115-.594.394-1.332 1.153-1.303a1.225 1.225 0 0 1 1.171.888c.047.17.058.347.03.52a.095.095 0 0 1-.096.096.095.095 0 0 1-.096-.096l-.01-.047ZM187.101 45.274h.002a.494.494 0 0 1 .094-.154.101.101 0 0 1 .037-.028.104.104 0 0 1 .126.029.564.564 0 0 1 0 .555.102.102 0 0 1-.091.052.105.105 0 0 1-.07-.026.093.093 0 0 1-.069-.007.203.203 0 0 1-.083-.1.205.205 0 0 1-.004-.13.122.122 0 0 1 .027-.043l.002-.014a.516.516 0 0 1 .029-.13v-.004Z" fill="#0D1329"></path><path d="M187.207 45.332c1.393.115 2.786.182 4.179.192a5.178 5.178 0 0 1 1.806.115c.427.192.769.532.961.958.058.134-.134.249-.202.115a1.578 1.578 0 0 0-1.383-.958h-1.739c-1.22 0-2.431-.096-3.641-.211-.125 0-.135-.201 0-.192l.019-.019ZM182.959 45.848a.31.31 0 0 1-.057-.066.61.61 0 0 1-.046-.09c-.008-.014-.014-.03-.021-.044a.743.743 0 0 1-.058-.355.876.876 0 0 1 .106-.373l.008-.015a.349.349 0 0 1 .203-.158.271.271 0 0 1 .289.135c.016.03.031.062.044.094a.458.458 0 0 1 .113.17.45.45 0 0 1 .025.186.994.994 0 0 1 0 .172c.01.054.01.11 0 .163a.409.409 0 0 1-.374.288.309.309 0 0 1-.232-.107ZM181.365 44.671a.681.681 0 0 1 .173.45.624.624 0 0 1-.125.432.214.214 0 0 1-.144.095.2.2 0 0 1-.163-.057.677.677 0 0 1-.154-.613.404.404 0 0 1 .192-.278.242.242 0 0 1 .24 0 .26.26 0 0 1 .164.24v.316a.547.547 0 0 1-.068.344.366.366 0 0 1-.182.135.327.327 0 0 1-.269-.067.484.484 0 0 1-.116-.355 1.501 1.501 0 0 1 0-.355.309.309 0 0 1 .317-.239.336.336 0 0 1 .308.278.882.882 0 0 1 0 .354.393.393 0 0 1-.202.288.317.317 0 0 1-.413-.086.48.48 0 0 1-.058-.345.804.804 0 0 1 .096-.336.49.49 0 0 1 .145-.134.317.317 0 0 1 .278 0 .38.38 0 0 1 .154.364v.182a.407.407 0 0 1-.048.211.253.253 0 0 1-.279.115.24.24 0 0 1-.144-.105.231.231 0 0 1 0-.173.184.184 0 0 1 .087-.115.25.25 0 0 1 .23.036c.02.017.036.037.048.06.02.05.02.104 0 .153a.162.162 0 0 0-.012-.122.16.16 0 0 0-.093-.079.128.128 0 0 0-.116 0 .105.105 0 0 0-.067.077v-.077c.005-.07.005-.14 0-.21h.115v.153s0-.058 0 0c0 .057 0 0 0 0v-.048a.308.308 0 0 1 0-.096v-.029s.058 0 0 0v.058a.112.112 0 0 1 0 .057V45.361s0 .067 0 0c-.048 0 0 0 0 0v-.422a.145.145 0 0 0 .154.086v.154h-.307a.152.152 0 0 0 0-.067v-.077c0-.019 0 0 0 0v-.086c0-.048 0 0 0 0v-.086c0 .057 0 0 0 0s0-.058 0 0a.17.17 0 0 1-.058-.125.168.168 0 0 1 .058-.134.2.2 0 0 1 .269 0l-.01.067Z" fill="#0D1329"></path><path d="M212.657 177.342h5.121c1.076 0 2.268-1.044 2.566-2.942.297-1.897 2.507-2.932 2.978-4.484.471-1.552-1.97-3.746-1.97-3.746l-.403-.508-.432-.527-4.055.958s-.096.958-.163 2.118a25.726 25.726 0 0 0 0 2.721c.115 2.07-.606 4.302-2.518 4.705-1.911.402-1.124 1.705-1.124 1.705ZM177.003 177.342h13.576c.099-.017.196-.046.288-.086.961-.431.625-3.833.519-4.791v-.306s-4.804-3.68-5.428-.863c0 .096 0 .182-.067.259-.836 2.635-4.535 3.833-6.678 4.168-1.672.24-2.094 1.159-2.21 1.619Z" fill="#2D3A64"></path><path d="M179.741 101.807s.73 8.729 1.576 19.221c1.162 14.248 2.556 31.755 2.69 35.07.24 5.749 1.191 14.967 1.191 14.967s2.268 2.184 6.803 1.265a145.792 145.792 0 0 0 5.197-27.06l.058-.69c1.067-14.162 2.738-43.98 2.738-43.98l-20.253 1.207Z" fill="#263238"></path><path d="M179.741 101.807s.73 8.729 1.576 19.221l15.881 24.242.058-.69c1.067-14.162 2.738-43.98 2.738-43.98l-20.253 1.207Z" fill="#121819"></path><path d="M183.056 102.852s13.067 31.62 21.656 46.453c8.589 14.832 11.279 18.991 11.279 18.991s4.92-1.917 5.362-3.191c0 0-3.286-28.669-9.032-35.664-3.257-3.947-7.071-15.8-7.254-19.949-.182-4.149-1.162-12.342-1.162-12.342l-20.849 5.702Z" fill="#263238"></path><path d="m212.85 97.103.144 2.031a4.312 4.312 0 0 0 .139 3.24 4.331 4.331 0 0 0 2.359 2.232s1.662.642 1.739-.604c.077-1.246-.154-.786 0-2.549s-.576-3.43-1.787-3.986l-.961-1.102-1.633.738Z" fill="#F9B07D"></path><path d="M214.367 98.588c-1.441.44-1.671.345-1.671.345s-7.043-12.37-7.754-13.501c-.711-1.13-14.949-13.865-14.949-13.865l3.66-13.118s16.189 20.228 17.938 23.121c2.882 4.791 4.583 15.935 4.583 15.935a4.241 4.241 0 0 1-1.807 1.083Z" fill="#7337AF"></path><path d="M176.984 76.732c0 2.702.211 5.75.432 8.835v.546c.145 1.916.75 8.576.779 8.844.711 7.004 1.46 12.523 1.595 12.61.164.108.36.159.557.143 1.921-.23 7.58.182 12.23-.795a35.792 35.792 0 0 0 10.905-4.388c.481-.269 1.557-.959 1.47-1.524a63.84 63.84 0 0 0-.451-2.51 131.492 131.492 0 0 1-2.335-17.621 72.358 72.358 0 0 0-.346-4.13 61.482 61.482 0 0 0-1.922-9.86c-1.594-5.538-3.939-9.774-6.879-11.431-.374-.211-2.44 1.063-4.342 2.232a8.608 8.608 0 0 1-5.39 1.236l-1.576 1.687a16.745 16.745 0 0 0-4.496 9.045c0 .307-.077.623-.106.958a56.091 56.091 0 0 0-.125 6.123Z" fill="#9154CE"></path><path d="M176.984 76.732c0 2.702.211 5.75.432 8.835v.546c10.896-6.583 12.577-18.57 12.577-18.57a30.58 30.58 0 0 0-12.855 3.104 55.898 55.898 0 0 0-.154 6.085Z" fill="#7337AF"></path><path d="M149.535 81.905c-.115-1.552.72-1.81.72-1.81s16.382-2.875 17.775-3.287c1.393-.412 13.297-12.38 13.297-12.38s4.563-4.963 8.301-3.833a7.084 7.084 0 0 1 3.349 2.196 7.056 7.056 0 0 1 1.617 3.658 7.056 7.056 0 0 1-3.314 6.919c-5.591 3.306-16.784 9.821-19.417 10.54-5.87 1.658-21.627.134-21.627.134a4.78 4.78 0 0 1-.701-2.137Z" fill="#9154CE"></path><ellipse cx="63.056" cy="55.22" rx="46.722" ry="46.597" fill="#9154CE"></ellipse><mask id="b" style="mask-type:alpha" maskUnits="userSpaceOnUse" x="16" y="8" width="94" height="94"><path d="M108.358 65.645c5.879-25.057-9.723-50.124-34.848-55.987-25.126-5.864-50.26 9.696-56.14 34.754-5.878 25.058 9.724 50.124 34.85 55.988 25.124 5.863 50.259-9.697 56.138-34.755Z" fill="#9154CE"></path></mask><g mask="url(#b)"><path d="M129.529 91.257c.884 4.447-3.238 8.394-4.535 9.142-1.297.747-9.963 4.197-15.171 4.321-5.207.125-12.086-10.866-9.271-12.102 2.815-1.236 21.982-2.596 24.086-2.596 1.689.133 3.342.551 4.891 1.235Z" fill="#F8BFC7"></path><path d="M115.866 88.91c-2.277 13.338-7.686 23.715-9.358 23.897-1.671.182-17.87-5.376-22.338-7.407-4.467-2.031 1.374-33.345 4.19-32.79 2.814.557 8.867 6.564 13.892 9.449 5.025 2.884 13.614 6.85 13.614 6.85Z" fill="#fff"></path><path d="M89.205 94.457c1.556 2.664 14.411 9.438 21.511 11.901-1.758 3.938-3.401 6.362-4.208 6.448-1.441.163-13.518-3.89-19.763-6.343a95.516 95.516 0 0 1 2.46-12.006Z" fill="#D5EBF9"></path><path d="M129.548 90.644c.125 5.29-4.65 6.047-10.377 4.686-5.726-1.36-15.055-14.2-19.215-19.997-4.16-5.797-11.914-16.155-13.518-17.075-1.605-.92-5.284-1.418-8.436-6.64-3.151-5.223.961-16.146 2.48-17.44 1.517-1.293 14.238 3.028 15.717 5.213 1.48 2.185-1.047 13.951-.595 15.427.451 1.475 11.298 13.587 16.035 16.548 4.737 2.96 17.813 15.446 17.909 19.278Z" fill="#F8BFC7"></path><path d="M87.014 42.907c-1.498-.738-1.864-4.111-.96-3.517.903.594 2.594.585 4.803.556 1.052.01 2.103-.067 3.142-.23.134.879.208 1.765.221 2.654 0 0-5.707 1.275-7.206.537ZM77.09 43.674c.902-1.687 1.604-2.961 1.604-2.961l8.772 8.413a56.694 56.694 0 0 1 5.332-3.986l.769 1.37a27.915 27.915 0 0 0-2.681 8.7s-1.345 1.476-2.094 1.6c0 0 9.377 14.824 15.372 22.106 5.995 7.282 10.136 13.53 13.018 15.542-5.707-3.277-13.45-13.97-17.178-19.164-4.209-5.768-11.962-16.117-13.566-17.037-1.605-.92-5.285-1.418-8.436-6.64-1.249-2.07-1.335-5.03-.913-7.943Z" fill="#F3858C"></path><path d="M95.344 44.517c-.105.862-8.82 8.393-9.732 9.265-.077.058-.75.163-.961 0-2.296-2.03-12.413-20.361-12.625-21.022-.211-.661 6.543-6.918 8.647-8.624a1.802 1.802 0 0 1 1.614.182c2.056 3.076 13.192 19.087 13.057 20.199Z" fill="#111031"></path><path d="M94.403 44.516c-.106.862-8.82 8.394-9.733 9.266-.913.871-13.355-20.304-13.557-21.023-.201-.719 7.312-6.784 9.368-8.509a.577.577 0 0 1 .855.086c2.066 3.057 13.201 19.068 13.067 20.18Z" fill="#2E2E80"></path><path d="M92.933 43.28c-.097.805-8.244 7.857-9.099 8.624-.855.766-12.49-18.992-12.682-19.662-.192-.671 6.84-6.382 8.752-7.963a.547.547 0 0 1 .808.086c1.94 2.894 12.355 17.9 12.22 18.915Z" fill="#0BAAE2"></path><path d="M87.706 32.952a9.802 9.802 0 0 1-3.19-4.485c-.154-.958-.058-1.763.673-1.916.73-.153 2.997 2.683 4.131 3.545 1.134.863 2.47 2.654 1.922 3.833-.548 1.178-3.027.738-3.296.556-.269-.182-.24-1.533-.24-1.533Z" fill="#F8BFC7"></path><path d="M84.804 26.762c-.422 1.054 2.364 5.28 4.804 6.496l-.903 1.035-.96-.22a7.997 7.997 0 0 1-.049-1.121 9.803 9.803 0 0 1-3.18-4.485 2.054 2.054 0 0 1 .288-1.705Z" fill="#F3858C"></path><path d="M90.848 37.215c-2.325-1.237-4.141-1.093-5.41-1.6-1.268-.509-1.489-2.463-.634-2.78.855-.316 6.101.508 7.446 1.112 1.346.604 1.99 3.373 1.99 3.373l-3.392-.105Z" fill="#F8BFC7"></path><path d="M89.83 35.779a3.072 3.072 0 0 0 1.767 0c0 .507.442.766.96 1.494l-1.738-.057c-2.325-1.236-4.141-1.093-5.41-1.6a1.92 1.92 0 0 1-1.066-1.303c.596 1.063 4.18 1.245 5.486 1.465Z" fill="#F3858C"></path><path d="M96.2 39.39c-1.24 1.706-7.312.959-8.542.777-1.23-.183-1.989-.959-1.864-1.735.25-1.562 8.282-1.284 8.945-1.044.663.24 1.46 2.002 1.46 2.002Z" fill="#F8BFC7"></path><path d="M85.842 38.824c.826.824 2.825 1.294 4.996 1.466 1.07.103 2.146.123 3.219.058-2.132.218-4.282.16-6.399-.173a2.002 2.002 0 0 1-1.816-1.35Z" fill="#F3858C"></path><path d="M67.77 63.345c12.903 6.554 15.007 6.296 20.59 9.266 5.581 2.97 3.89 34.207 3.535 39.027-.356 4.82-1.682 23.955-.961 29.139.72 5.183 3.603 24.452 4.871 27.413 1.268 2.961 3.69 7.972 0 10.933-3.69 2.961-11.673 5.002-28.88 3.89-17.208-1.111-35.828-11.67-36.645-13.155-.816-1.486 8.225-28.746 8.647-33.892a69.791 69.791 0 0 1 1.922-11.498c.538-2.405-4.929-13.712-5.765-20.936-.836-7.225-8.79-27.136-7.254-30.787 1.538-3.65 15.2-7.723 24.529-12.36 9.33-4.638 15.41 2.96 15.41 2.96Z" fill="#fff"></path><path d="M80.558 71.451A35.873 35.873 0 0 1 68.356 89.16a54.756 54.756 0 0 1-19.802-9.132 83.329 83.329 0 0 0 20.82 11.345 30.499 30.499 0 0 0 11.184-19.92Z" fill="#D5EBF9"></path><path d="M77.925 68.136c-2.478-1.054-5.659-2.51-10.155-4.79 0 0-6.12-7.609-15.459-2.961-3.238 1.61-6.994 3.152-10.568 4.628a46.561 46.561 0 0 0 24.941 20.37 32.82 32.82 0 0 0 11.241-17.247Z" fill="#F8BFC7"></path><path d="M30.28 169.856c-.816-1.475 8.225-28.746 8.648-33.891a69.763 69.763 0 0 1 1.921-11.498c.538-2.405-4.929-13.712-5.764-20.937a38.766 38.766 0 0 0-1.01-4.79l5.813-4.322c3.411 9.486 5.534 26.158 8.772 30.231 3.238 4.072 11.28 5.749 11.28 5.749s-7.956 1.859-11.414 1.111c0 0-3.709 14.632-3.747 21.857-.039 7.224.634 18.205.71 19.643 0 .546-.086 2.481-.25 4.676-8.377-3.258-14.526-7.024-14.958-7.829Z" fill="#D5EBF9"></path><path d="M53.771 47.219c-.134 7.732-.644 13.04-2.363 14.526 0 0 2.95 12.83 14.748 11.728 3.987-.364 3.602-7.033 1.604-10.128l1.182-9.476-15.17-6.65Z" fill="#F8BFC7"></path><path d="M52.311 60.384c1.019-2.376 1.364-6.995 1.47-13.165l15.17 6.65-.768 6.084c-2.68 1.198-15.872.431-15.872.431Z" fill="#F3858C"></path><path d="M36.756 104.336c3.545-6.956 4.967-18.263 1.768-24.213-3.2-5.95-9.262-8.097-10.693-7.378-1.432.718-5.506 9.994-9.282 14.277-3.775 4.283-14.075 16.289-14.411 17.314-.336 1.025 7.446 9.18 22.04 15.178 1.72.719 10.578-15.178 10.578-15.178Z" fill="#fff"></path><path d="m25.909 109.741-2.325 4.791s11.462-11.498 16.227-20.026a34.505 34.505 0 0 1-3.074 9.86s-8.859 15.896-10.569 15.177a75.721 75.721 0 0 1-6.87-3.219l6.61-6.583Z" fill="#D5EBF9"></path><path d="M69.836 47.918a52.194 52.194 0 0 1-.961-9.706c-.144-2.434-.269-4.667-2.488-6.123a8.252 8.252 0 0 0-5.563-1.035c-5.13.67-6.226 5.624-5.832 10.339.307 3.612 1.72 7.08 3.122 10.396-1.921-.077-4.458-1.064-5.582-2.625a11.107 11.107 0 0 0 2.96 5.404c-5.467-.096-10.569-3.66-13.451-8.451-2.883-4.791-3.843-10.627-3.507-16.29.365-6.707 2.46-13.414 6.6-18.531a23.883 23.883 0 0 1 7.397-5.945 23.944 23.944 0 0 1 26.797 3.281 24.509 24.509 0 0 1 7.052 11.594 38.523 38.523 0 0 1 .317 18.033 62.564 62.564 0 0 0-.96 7.014c-.077.757-.961 9.582-.462 9.582-3.449.211-7.417-.488-9.751-3.114 1.047 1.801 1.921 3.545 2.997 5.347-4.39-.71-7.59-4.762-8.685-9.17Z" fill="#37295C"></path><path d="M51.936 35.893c-1.547-.958-3.4-1.408-4.803 0-2.124 2.175.874 12.121 5.399 9.678 0 0 6.581 9.17 11.404 11.757 4.824 2.587 8.263 1.303 10.07-.556 1.805-1.858 7.974-9.447 9.079-17.506.394-2.874 0-8.518.057-9.725.27-3.699 1.682-6.708-1.249-9.65a16.94 16.94 0 0 0-11.231-4.857 18.134 18.134 0 0 0-7.689 1.525 18.09 18.09 0 0 0-6.32 4.626c-3.842 4.293-4.496 9.199-4.717 14.708Z" fill="#F8BFC7"></path><path d="M47.853 38.642c.394-1.81 1.922-2.175 3.103-.91 1.182 1.265 1.384 5.404 1.076 6.008-.307.603-2.334.565-2.719-.69-.384-1.255.798-2.041 1.922-1.667a4.302 4.302 0 0 0-.615-3.01c-.96-1.178-1.921-.727-2.142-.42-.221.306-.625.69-.625.69Z" fill="#F3858C"></path><path d="M54.52 27.364a36.38 36.38 0 0 0 12.328-2.73c.61-1.63.906-3.36.874-5.098a14.678 14.678 0 0 1 1.806 6.324c2.46-.154 4.929-.288 7.398-.45.614-1.937.84-3.976.663-5.999a25.874 25.874 0 0 1 1.528 6.449c1.489-.527 3.372.249 4.919.527 1.921-4.274 1.796-12.016-2.267-15.255-4.065-3.238-10.848-4.015-15.69-3.315-10.3 1.485-18.39 10.013-17.755 20.64a24.886 24.886 0 0 0 7.792 16.02 24.498 24.498 0 0 1-1.595-17.113Z" fill="#37295C"></path><path d="M64.148 40.347a3.494 3.494 0 0 0-2.553.692 3.476 3.476 0 0 0-.674 4.836 3.49 3.49 0 0 0 2.266 1.361c1.989.134 3.642-1.993 3.459-3.938a3.339 3.339 0 0 0-.779-1.872 3.354 3.354 0 0 0-1.72-1.08Z" fill="#EE6B53"></path><path d="M75.61 35.556c-.634 0-1.095.958-1.057 1.658.038.7.644 1.667 1.307 1.62.663-.049 1.095-.96 1.066-1.668-.029-.71-.653-1.696-1.316-1.61ZM68.183 36.217c-.634.048-1.086.959-1.057 1.658.03.7.644 1.658 1.307 1.61.663-.048 1.095-.959 1.066-1.658-.028-.7-.701-1.667-1.316-1.61ZM63.744 33.247a8.369 8.369 0 0 1 5.515.89 2.927 2.927 0 0 0-1.922-2.663 2.986 2.986 0 0 0-2.14.193 2.973 2.973 0 0 0-1.453 1.58ZM74.207 33.4a13.097 13.097 0 0 1 5.505-1.255 2.89 2.89 0 0 0-4.85-.537 2.87 2.87 0 0 0-.626 1.792h-.029Z" fill="#10102A"></path><path d="M68.26 49.795a10.486 10.486 0 0 1 7.686 1.754 4.196 4.196 0 0 0-.887-3.122 4.214 4.214 0 0 0-2.85-1.564 4.167 4.167 0 0 0-2.456.821 4.148 4.148 0 0 0-1.493 2.111Z" fill="#fff"></path><path d="M72.545 38.796c.413-.077.519 1.504 1.921 2.453.702.47 1.48.613 1.47.958 0 .134-.115.24-.49.489-1.133.737-1.7 1.101-2.46.958a1.482 1.482 0 0 1-.96-.432c-.307-.402-.182-.872 0-1.964.356-1.964.288-2.414.519-2.462Z" fill="#F4918E"></path><path d="M81.73 38.854a3.507 3.507 0 0 0-3.662 1.617 3.481 3.481 0 0 0 1.347 4.884c.42.223.88.358 1.354.398.15.01.301.01.452 0 .426-.934.792-1.894 1.095-2.875.349-1.13.603-2.287.759-3.459a2.8 2.8 0 0 0-1.345-.565Z" fill="#EE6B53"></path></g><path d="M52.334 148.404c-4.603-3.775-5.208-10.166-4.574-15.81a6.26 6.26 0 0 1 .596-2.75 1.925 1.925 0 0 1 2.43-.805c.683.383.962 1.226 1.269 1.916a5.509 5.509 0 0 0 2.056 2.29 2.113 2.113 0 0 0 1.922.336c.855-.393 1.037-1.505 1.105-2.444.124-1.763.259-3.516.384-5.26a8.717 8.717 0 0 1 .5-2.779 2.881 2.881 0 0 1 1.998-1.82 1.788 1.788 0 0 1 2.113 1.37c.002.394-.02.787-.067 1.178a.955.955 0 0 0 .51.959 1.154 1.154 0 0 0 1.066-.355 12.456 12.456 0 0 0 2.517-3.21 17.499 17.499 0 0 1 2.373-3.363 5.116 5.116 0 0 1 3.613-1.658 3.04 3.04 0 0 1 2.96 2.319c.24 1.351-.645 2.635-1.567 3.641a21.035 21.035 0 0 1-4.718 3.833c-.331.155-.607.41-.787.728-.26.613.288 1.284.893 1.533.71.219 1.441.36 2.181.422a2.118 2.118 0 0 1 1.72 1.245c.317.959-.577 1.917-1.422 2.53a18.082 18.082 0 0 1-5.573 2.654 6.194 6.194 0 0 0-2.056.805 1.746 1.746 0 0 0-.72 1.917 1.79 1.79 0 0 0 1.921.891 12.965 12.965 0 0 0 2.133-.623c1.336-.393 2.998-.173 3.738 1.015a2.968 2.968 0 0 1 .115 2.655 6.876 6.876 0 0 1-1.614 2.213 18.262 18.262 0 0 1-8.167 4.791 12.52 12.52 0 0 1-8.8-.46" fill="#17868D"></path><path d="m73.845 117.156-.096.086-.298.23c-.269.192-.653.489-1.143.882a34.916 34.916 0 0 0-3.91 3.593 66.265 66.265 0 0 0-2.431 2.76 83.412 83.412 0 0 0-2.642 3.286 42.754 42.754 0 0 0-2.642 3.833 35.6 35.6 0 0 0-1.192 2.156c-.384.738-.788 1.495-1.181 2.261a87.525 87.525 0 0 0-4.084 8.777 42.09 42.09 0 0 0-2.171 7.599 30.87 30.87 0 0 0-.51 5.299v1.964-.508c0-.335 0-.824-.057-1.456a29.125 29.125 0 0 1 .452-5.318 41.6 41.6 0 0 1 2.152-7.666 84.485 84.485 0 0 1 4.064-8.806l1.191-2.251c.394-.738.778-1.476 1.201-2.166a43.632 43.632 0 0 1 2.661-3.833 77.102 77.102 0 0 1 2.662-3.286 78.22 78.22 0 0 1 2.45-2.75 32.23 32.23 0 0 1 3.949-3.565c.5-.383.893-.67 1.172-.852l.307-.221.096-.048Z" fill="#263238"></path><path d="M60.586 131.741a2.686 2.686 0 0 1-.057-.412c0-.268-.058-.652-.087-1.121-.057-.958-.096-2.252-.134-3.699a89.03 89.03 0 0 0-.163-3.698c0-.47-.068-.853-.097-1.112a1.67 1.67 0 0 1 0-.412c.043.131.072.266.087.403 0 .258.096.642.144 1.111.106.958.182 2.252.22 3.699.04 1.447.059 2.721.087 3.698v1.121c.016.14.016.282 0 .422Z" fill="#263238"></path><path d="M72.884 130.427a2.57 2.57 0 0 1-.48 0h-1.326c-1.124 0-2.67.125-4.371.317a66.89 66.89 0 0 0-4.333.622l-1.307.24a2.7 2.7 0 0 1-.48.086c.15-.07.308-.121.47-.153.298-.077.74-.182 1.297-.297 1.096-.24 2.633-.489 4.333-.68a43.03 43.03 0 0 1 4.41-.25h1.336c.153.027.304.065.451.115ZM54.245 144.753a.588.588 0 0 1-.067-.153c0-.115-.105-.268-.173-.45a36.447 36.447 0 0 1-.586-1.687c-.48-1.427-1.066-3.43-1.7-5.643-.635-2.214-1.201-4.207-1.643-5.654-.221-.699-.394-1.274-.529-1.696l-.144-.469c0-.106-.048-.163 0-.163.027.049.05.1.067.153l.173.451c.154.402.346.958.587 1.686.48 1.437 1.076 3.43 1.7 5.644a277.38 277.38 0 0 0 1.643 5.653l.538 1.706c0 .182.096.335.135.459.038.125.01.163 0 .163Z" fill="#263238"></path><path d="M70.761 140.854h-.163l-.48.124-1.768.422c-1.49.354-3.545.872-5.822 1.447-2.278.574-4.334 1.073-5.842 1.398a58.03 58.03 0 0 1-1.778.365l-.49.086h-.172.172l.471-.125 1.778-.421a505.36 505.36 0 0 0 5.822-1.447c2.277-.575 4.333-1.073 5.832-1.399.75-.163 1.364-.288 1.787-.364l.49-.086h.163Z" fill="#263238"></path><path d="M48.125 143.038c7.11-5.836 8.042-15.695 7.062-24.415-.163-1.456-.125-3.009-.96-4.235-.837-1.227-2.499-1.974-3.757-1.255-1.048.594-1.422 1.916-1.922 2.98a8.518 8.518 0 0 1-3.17 3.545 3.268 3.268 0 0 1-2.989.498c-1.316-.594-1.604-2.319-1.71-3.775-.192-2.702-.384-5.414-.586-8.116a13.678 13.678 0 0 0-.778-4.283 4.512 4.512 0 0 0-3.075-2.817 2.754 2.754 0 0 0-2.056.382 2.74 2.74 0 0 0-1.19 1.716c-.007.605.025 1.21.095 1.811a1.52 1.52 0 0 1-.778 1.505 1.778 1.778 0 0 1-1.653-.547 19.436 19.436 0 0 1-3.89-4.953 26.738 26.738 0 0 0-3.661-5.146 7.886 7.886 0 0 0-5.573-2.568 4.746 4.746 0 0 0-2.909 1.007 4.722 4.722 0 0 0-1.674 2.577c-.365 2.089.961 4.072 2.431 5.624a32.399 32.399 0 0 0 7.273 5.903c.52.238.95.634 1.23 1.131.394.958-.452 1.973-1.384 2.366-1.099.329-2.229.548-3.372.652a3.288 3.288 0 0 0-2.661 1.916c-.48 1.533.893 2.99 2.2 3.91a27.73 27.73 0 0 0 8.647 4.101 9.471 9.471 0 0 1 3.18 1.245 2.686 2.686 0 0 1 1.105 3.009 2.764 2.764 0 0 1-2.882 1.38 20.29 20.29 0 0 1-3.296-.958c-2.056-.594-4.63-.259-5.764 1.571a4.617 4.617 0 0 0-.173 4.101c.595 1.29 1.44 2.45 2.488 3.411a28.114 28.114 0 0 0 12.615 7.417c4.804 1.245 9.099 1.341 13.585-.7" fill="#48C6CE"></path><path d="m14.911 94.793.154.134.461.345c.404.307 1.009.757 1.768 1.36a54.623 54.623 0 0 1 6.034 5.549 104.326 104.326 0 0 1 3.737 4.264c1.307 1.561 2.7 3.248 4.083 5.078a64.709 64.709 0 0 1 4.083 5.922c.654 1.063 1.24 2.184 1.845 3.334s1.21 2.3 1.826 3.478a130.42 130.42 0 0 1 6.254 13.568 64.295 64.295 0 0 1 3.363 11.719c.501 2.703.765 5.444.788 8.192v3.019a.558.558 0 0 0 0-.202v-.574c.048-.518.077-1.275.096-2.243a45.99 45.99 0 0 0-.701-8.23 64.072 64.072 0 0 0-3.325-11.777 127.774 127.774 0 0 0-6.283-13.596l-1.826-3.479c-.605-1.149-1.2-2.28-1.854-3.344a66.35 66.35 0 0 0-4.112-5.94c-1.403-1.831-2.796-3.507-4.112-5.069a97.15 97.15 0 0 0-3.776-4.255 51.33 51.33 0 0 0-7.907-6.812l-.48-.336-.116-.105Z" fill="#17868D"></path><path d="M35.376 117.301c.06-.205.091-.418.096-.632 0-.403.096-.958.134-1.725.096-1.466.154-3.488.212-5.749.057-2.261.134-4.245.25-5.701.057-.728.105-1.313.144-1.725.021-.21.021-.422 0-.632-.07.201-.116.41-.135.623-.077.402-.154.958-.23 1.715-.164 1.456-.289 3.478-.337 5.749-.048 2.271-.096 4.187-.125 5.749 0 .69 0 1.265-.057 1.734.001.199.017.398.048.594Z" fill="#17868D"></path><path d="M16.391 115.279c.25.025.5.025.75 0h2.046c1.73 0 4.122.202 6.725.479 2.604.278 4.987.652 6.726.959.855.143 1.547.287 2.017.373.243.064.49.106.74.125a3.699 3.699 0 0 0-.72-.221 31.778 31.778 0 0 0-1.999-.469c-1.7-.364-4.064-.757-6.725-1.044a67.772 67.772 0 0 0-6.726-.403H17.17c-.265.042-.526.11-.778.201ZM45.156 137.404s.048-.077.116-.24c.067-.163.153-.421.269-.699.22-.604.538-1.495.903-2.597.73-2.213 1.652-5.299 2.613-8.71.96-3.411 1.854-6.506 2.546-8.729l.817-2.625c.096-.288.163-.527.22-.719a.872.872 0 0 0 .058-.259s0 .077-.105.24l-.27.699c-.23.604-.537 1.495-.903 2.606-.73 2.204-1.652 5.29-2.622 8.71-.97 3.421-1.855 6.506-2.537 8.72a354.022 354.022 0 0 1-.826 2.635c-.087.287-.154.517-.221.709a1.915 1.915 0 0 0-.058.259Z" fill="#17868D"></path><path d="m19.667 131.357.26.087.74.182 2.728.651a820.98 820.98 0 0 1 8.993 2.242c3.506.892 6.725 1.649 9.012 2.156a144.7 144.7 0 0 0 2.748.566l.758.134h.26s-.087 0-.25-.077l-.74-.191-2.738-.652a642.84 642.84 0 0 1-8.993-2.233c-3.516-.891-6.725-1.657-9.012-2.156a84.01 84.01 0 0 0-2.748-.565l-.749-.144h-.269Z" fill="#17868D"></path><path d="m39.344 159.768.653 17.515h18.918l1.489-17.515h-21.06ZM62.662 153.98H37.509v5.788h25.153v-5.788Z" fill="#263238"></path></g><defs><clipPath id="a"><path fill="#fff" d="M0 0h338v187H0z"></path></clipPath></defs></svg>