<?xml version="1.0" encoding="utf-8"?>
<!-- Generator: Adobe Illustrator 16.0.0, SVG Export Plug-In . SVG Version: 6.00 Build 0)  -->
<!DOCTYPE svg PUBLIC "-//W3C//DTD SVG 1.1//EN" "http://www.w3.org/Graphics/SVG/1.1/DTD/svg11.dtd">
<svg version="1.1" xmlns="http://www.w3.org/2000/svg" xmlns:xlink="http://www.w3.org/1999/xlink" x="0px" y="0px"
	 width="520.333px" height="470.341px" viewBox="0 0 520.333 470.341" enable-background="new 0 0 520.333 470.341"
	 xml:space="preserve">
<g id="Layer_5">
</g>
<g id="Layer_6">
</g>
<g id="Layer_4">
	<g>
		<g>
			<path fill="#EAE6FF" d="M514.594,310.375c-2.359-4.712-5.494-9.396-9.492-14.012c-9.382-10.83-22.48-17.388-32.389-27.632
				c-16.917-17.49-21.521-43.022-17.574-66.365c6.972-41.235,9.955-144.081-99.214-130.638
				c-39.131,4.818-70.051,34.805-92.546,64.735c-19.143,25.471-53.572,27.716-81.287,33.654
				c-34.052,7.296-68.738,18.316-100.242,34.463c-64.884,33.257-84.264,81.063-81.616,142.23
				c0.799,18.483,3.414,47.592,34.632,81.651c49.084,53.553,120.854,47.033,184.167,28.212
				c22.018-6.545,43.794-16.917,66.098-22.069c51.341-11.859,105.781,1.583,156.32-14.15
				C484.625,407.02,538.088,357.302,514.594,310.375z"/>
		</g>
		<polygon fill="#D3CFFF" points="211.575,444.662 451.657,307.511 387.128,278.446 153.579,411.175 		"/>
		<g>
			<g>
				<path fill="#7A74D1" d="M177.627,121.384l82.294,37.709l-9.855-11.807v-45.023c0-2.969-2.406-6.48-5.378-7.84l-67.061-30.729
					c-2.969-1.36-5.376-0.056-5.376,2.914v46.936C172.251,116.515,174.659,120.025,177.627,121.384z"/>
			</g>
			<g>
				<g>
					<polygon fill="#00AB97" points="389.579,178.433 389.142,331.688 344.62,357.562 345.054,204.306 					"/>
					<polygon fill="#00CCB4" points="345.054,204.306 344.62,357.562 299.807,331.688 300.243,178.433 					"/>
					<polygon fill="#00F2D6" points="389.579,178.433 345.054,204.306 300.243,178.433 344.764,152.558 					"/>
				</g>
				<g>
					<polygon fill="#8659FF" points="316.427,269.778 316.139,371.945 271.617,397.821 271.906,295.648 					"/>
					<polygon fill="#9479FF" points="271.906,295.648 271.617,397.821 226.804,371.945 227.092,269.778 					"/>
					<polygon fill="#A892FF" points="316.427,269.778 271.906,295.648 227.092,269.778 271.615,243.902 					"/>
				</g>
				<g>
					<polygon fill="#FFC64D" points="246.773,360.004 246.627,411.09 202.105,436.963 202.252,385.877 					"/>
					<polygon fill="#FFDB57" points="202.252,385.877 202.105,436.963 157.294,411.09 157.438,360.004 					"/>
					<polygon fill="#FFEA9E" points="246.773,360.004 202.252,385.877 157.438,360.004 201.96,334.129 					"/>
				</g>
			</g>
			<g>
				<path fill="#FFB71F" d="M267.63,219.323c-5.993-3.459-11.426-3.779-15.35-1.502l-3.896,2.266
					c3.923-2.278,9.356-1.961,15.351,1.5c11.916,6.881,21.543,23.562,21.504,37.249c-0.021,6.803-2.421,11.59-6.292,13.839
					l3.896-2.265c3.873-2.251,6.273-7.036,6.293-13.838C289.175,242.884,279.547,226.202,267.63,219.323z"/>
				<path fill="#FFDB57" d="M263.735,221.587c11.916,6.881,21.543,23.562,21.504,37.249c-0.039,13.693-9.729,19.215-21.646,12.335
					c-11.91-6.877-21.543-23.554-21.505-37.249C242.127,220.237,251.824,214.71,263.735,221.587z"/>
				<path fill="#FFB71F" d="M264.258,245.069c3.747,3.171,7.859,6.982,7.844,12.45c-0.011,4.04-2.584,6.048-7.889,3.726
					l-0.012,4.348l-3.381-1.951l0.012-4.228c-3.342-2.163-6.549-5.22-8.401-7.963l1.871-3.663c1.69,2.412,4.115,4.871,6.543,6.539
					l0.02-6.481c-3.745-3.21-7.929-7.063-7.912-12.612c0.011-4.113,2.626-6.139,7.958-3.758l0.012-4.309l3.381,1.953l-0.011,4.227
					c2.527,1.693,4.998,3.898,6.848,6.328l-1.706,3.789c-1.72-2.111-3.469-3.788-5.156-4.991L264.258,245.069z M260.879,242.143
					l0.017-5.509c-1.786-0.567-2.504,0.148-2.507,1.43C258.384,239.419,259.4,240.744,260.879,242.143 M264.228,256.126
					c1.688,0.545,2.433-0.033,2.436-1.275c0.006-1.363-0.975-2.658-2.418-4.078L264.228,256.126"/>
			</g>
			<g>
				<path fill="#FFB71F" d="M204.123,308.204c-5.994-3.46-11.426-3.78-15.35-1.502l-3.896,2.265
					c3.923-2.277,9.356-1.96,15.351,1.501c11.916,6.88,21.543,23.562,21.504,37.248c-0.021,6.803-2.421,11.59-6.293,13.839
					l3.896-2.264c3.874-2.25,6.274-7.037,6.294-13.839C225.667,331.765,216.04,315.084,204.123,308.204z"/>
				<path fill="#FFDB57" d="M200.227,310.468c11.916,6.88,21.543,23.562,21.504,37.248c-0.04,13.694-9.729,19.216-21.646,12.335
					c-11.91-6.877-21.543-23.554-21.505-37.248C178.62,309.117,188.315,303.591,200.227,310.468z"/>
				<path fill="#FFB71F" d="M200.75,333.95c3.747,3.17,7.859,6.981,7.844,12.449c-0.012,4.04-2.584,6.049-7.889,3.726l-0.013,4.349
					l-3.382-1.952l0.014-4.228c-3.342-2.162-6.549-5.219-8.401-7.963l1.871-3.663c1.69,2.413,4.115,4.872,6.543,6.54l0.019-6.482
					c-3.744-3.21-7.928-7.062-7.912-12.611c0.011-4.114,2.626-6.14,7.959-3.757l0.012-4.31l3.381,1.952l-0.011,4.228
					c2.527,1.693,4.996,3.898,6.848,6.327l-1.706,3.79c-1.72-2.112-3.469-3.789-5.156-4.991L200.75,333.95z M197.372,331.023
					l0.016-5.509c-1.786-0.568-2.503,0.148-2.508,1.43C194.876,328.299,195.892,329.625,197.372,331.023 M200.719,345.007
					c1.688,0.544,2.434-0.033,2.437-1.276c0.005-1.361-0.975-2.658-2.418-4.078L200.719,345.007"/>
			</g>
			<g>
				<g>
					<path fill="#FFB9B0" d="M276.881,126.771c0,0-4.37-3.084-4.525-4.376c-0.156-1.298-3.201-6.542-4.176-7.585
						c-0.975-1.045-6.096-2.82-7.189-2.977c-1.091-0.155-7.36,0.376-6.58,1.232c0.78,0.855,4.836,0.543,5.617,1.011
						c0.779,0.47,0.779,0.47,0.779,0.47s-0.779,1.057-0.467,1.699c0.312,0.641-1.341,1.626-0.717,2.717
						c0.624,1.094-0.252,1.019,0.308,2.157c0.922,1.882,3.282,2.931,3.907,2.419c0.468,1.111,2.26,3.383,3.938,3.229
						c1.68-0.156,5.758,3.666,5.758,3.666"/>
					<g>
						<path fill="#FFB9B0" d="M343.5,104.837c0.149,2.938-0.061,8.047,0.78,8.805c0.841,0.755,3.552,0.636,3.552,0.636
							s-9.695,12.261-10.562,11.587c-0.867-0.676-12.334-10.02-9.756-10.498c2.576-0.484,5.097-0.381,5.024-1.714
							c-0.073-1.335-0.147-2.669-0.219-4.004"/>
					</g>
					<path fill="#FCA70C" d="M354.556,170.304c0,0-18.914,2.147-23.269,2.238c-4.354,0.087-4.14-2.186-4.14-2.186
						c-0.221-4.793-1.033-16.088-1.935-19.915c-0.841-3.573-1.215-4.894-1.947-8.292c-1.626-7.547-1.554-8.988-3.277-18.305
						l11.299-9.082c0,0,1.169,3.476,5.903,3.537c6.331,0.08,8.3-4.355,8.3-4.355l15.41,10.233l1.446,24.887l-1.844,20.495"/>
					<g>
						<path fill="#FFB9B0" d="M343.712,102.179c-0.343,1.479-0.788,2.933-1.333,4.35c-0.998,2.597-2.471,3.527-5.219,3.594
							c-1.93,0.045-3.861,0.09-5.791,0.139c-1.484,0.033-3.327,0.084-4.524-0.957c-1.188-1.029-1.212-2.766-1.474-4.192
							c-0.339-1.828-0.612-3.667-0.824-5.513c-0.412-3.615-0.583-7.26-0.51-10.896c0.012-0.501,0.024-1.003,0.13-1.492
							c0.043-0.199,0.104-0.402,0.249-0.548c0.179-0.179,0.444-0.226,0.693-0.267c3.618-0.572,7.288-0.807,10.95-0.701
							c2.586,0.074,5.327,0.375,7.372,1.957c2.062,1.594,3.038,4.179,3.919,6.631c0.142,0.394,0.247,0.917-0.095,1.158"/>
					</g>
					<g>
						<g>
							<path fill="#ED9C80" d="M301.288,237.776c0,0,0.627,3.763,1.128,5.05c0.499,1.284,4.722,0.099,4.998-0.732
								c0.279-0.833-1.326-6.949-1.326-6.949"/>
							<path fill="#38287C" d="M308.883,243.157c0.366,1.386,0.826,4.049,0.826,4.049l-4.217,1.836l-0.693-0.649
								c0,0-1.045,1.269-2.34,1.866c-0.962,0.443-3.03,1.02-4.083,1.135c-3.683,0.395-6.392-0.299-6.611-0.811
								c-0.914-2.133,3.972-2.703,4.94-2.957c2.785-0.735,4.332-3.098,4.63-4.639c0.217-1.117-0.062-1.316,0.563-1.278
								c0,0,0.546-0.03,1.056,0.494c0.777,0.802,1.95,1.169,2.995,0.694c0.598-0.27,1.163-0.664,1.496-1.244
								C307.446,241.653,308.519,241.769,308.883,243.157z"/>
						</g>
						<g>
							<g>
								<path fill="#453087" d="M319.929,188.602c-6.593,1.296-14.872,1.393-21.535,0.511c0.933,2.672,3.218,6.093,4.087,9.854
									c2.874,12.422,3.872,29.107,4.601,39.43c0,0-1.379,2.649-5.799,0.632c-6.606-16.313-18.137-49.376-18.032-56.546
									c0.137-9.131,22.928-11.335,39.629-13.584"/>
							</g>
							<g>
								<path fill="#38287C" d="M349.043,170.322c5.252,3.834-29.114,18.279-29.114,18.279c-3.811,0.751-7.522,1.083-11.262,1.076
									c-0.354-0.683-0.687-1.38-0.839-2.132c-0.201-1-0.094-2.035-0.27-3.039c-0.34-1.951-1.74-3.602-3.432-4.625
									c-1.693-1.027-3.66-1.506-5.617-1.82c-4.645-0.75-12.758-0.225-12.758-0.225c10.326-7.614,31.462-8.609,41.304-9.236
									C328.941,171.706,348.289,169.771,349.043,170.322z"/>
							</g>
						</g>
						<g>
							<path fill="#ED9C80" d="M312.18,246.458c0,0-0.035,3.812,0.235,5.168c0.27,1.353,4.632,0.916,5.051,0.147
								c0.418-0.772-0.104-7.077-0.104-7.077"/>
							<path fill="#38287C" d="M318.729,253.073c0.119,1.433,0.111,4.132,0.111,4.132l-4.473,1.075l-0.568-0.758
								c0,0-1.251,1.066-2.631,1.433c-1.022,0.271-3.159,0.476-4.217,0.407c-3.694-0.248-6.243-1.399-6.371-1.939
								c-0.529-2.259,4.383-1.977,5.38-2.062c2.87-0.237,4.805-2.296,5.363-3.763c0.405-1.063,0.168-1.307,0.777-1.162
								c0,0,0.544,0.065,0.952,0.67c0.629,0.926,1.72,1.489,2.83,1.205c0.635-0.163,1.261-0.455,1.689-0.967
								C317.573,251.345,318.609,251.645,318.729,253.073z"/>
						</g>
						<g>
							<path fill="#453087" d="M360.503,169.56c0,0-10.512,1.044-23.28,0.744c-2.975,0-25.463,4.219-27.615,8.029
								c-3.538,6.269,2.309,42.905,1.768,69.133c0,0,2.696,2.252,7.465,0.135c1.186-12.884,8.797-43.279,3.547-57.468
								c12.397,1.644,22.402,3.28,33.67-0.455c2.639-0.874,4.613-2.739,5.797-6.148C363.045,180.104,362.424,172.622,360.503,169.56
								z"/>
						</g>
					</g>
					<g>
						<path fill="#FCA70C" d="M331.288,114.763c0,0-2.703,0.148-3.231,0.191c-2.251,0.178-4.546,0.476-6.678,1.265
							c-3.065,1.134-5.227,3.985-7.721,6.214c-2.403,2.146-14.85,14.007-17.172,14.443c-2.322,0.439-22.702-13.529-22.702-13.529
							l-4.977,4.977c0,0,22.115,20.434,28.71,20.471c3.201,0.015,20.854-9.277,26.503-12.889L331.288,114.763z"/>
						<path opacity="0.25" fill="#CE4A30" d="M297.569,144.868c-4.547,0.258-25.38-15.655-27.796-17.512l-0.966,0.967
							c0,0,22.115,20.434,28.71,20.471c2.669,0.012,15.365-6.438,22.793-10.679l1.923-1.116l-1.153-6.869
							C321.08,130.13,302.395,144.596,297.569,144.868z"/>
					</g>
					<g>
						<path fill="#A4A4F7" d="M276.347,173.649h50.623l-9.076-29.592c-0.5-1.633-2.011-2.751-3.721-2.751h-44.332
							c-1.698,0-2.911,1.644-2.411,3.267L276.347,173.649z"/>
						<path fill="#7A74D1" d="M275.712,173.649h49.862l-9.079-29.592c-0.502-1.633-2.01-2.751-3.718-2.751h-44.334
							c-1.697,0-2.912,1.644-2.413,3.267l8.696,28.348C274.859,173.354,275.26,173.649,275.712,173.649z"/>
					</g>
					<g opacity="0.25">
						<path fill="#CE4A30" d="M353.554,129.026c-2.519,11.391-2.966,20.307-3.677,28.453c-8.846,3.433-12.448,8.543-21.102,12.398
							c0,0-6.837-1.136-7.555,1.441c-0.414,1.488,8.003,2.672,8.003,2.672c8.021,0.037,29.177-5.826,30.608-6.219
							s5.6-27.286,5.768-41.881c0.023-2.073-0.051-4.321-1.347-5.941c-0.681-0.849-1.639-1.431-2.61-1.93
							c-5.645-2.886-9.827-3.673-16.152-4.076"/>
					</g>
					<g>
						<path fill="#FFB9B0" d="M329.968,171.641c-0.952-1.198-2.685-1.37-4.213-1.333c-1.131,0.029-2.261,0.117-3.381,0.271
							c-0.511,0.067-1.099,0.187-1.153,0.74c-0.056,0.556,2.479-0.001,3.808,0.383c-2.603,0.225-5.219,0.296-7.827,0.213
							c-0.305-0.008-0.62-0.018-0.901,0.094c-0.282,0.111-0.525,0.383-0.507,0.688c0.014,0.234,0.182,0.434,0.358,0.594
							c0.729,0.656,1.725,0.916,2.691,1.085c3.993,0.696,8.188,0.576,11.899-1.05"/>
					</g>
					<g>
						<path fill="#FCA70C" d="M353.004,128.815c-0.21,12.178-1.073,17.748-0.835,29.926c-6.114,1.308-14.577,8.229-23.231,12.082
							c0,0-0.516,1.719,0.286,3.168c0.658,0.242,29.197-6.707,31.466-8.797c2.041-1.883,4.742-24.708,4.91-39.303
							c0.023-2.073-0.051-4.321-1.347-5.941c-0.681-0.849-1.639-1.431-2.61-1.93c-5.645-2.886-9.827-3.673-16.152-4.076"/>
					</g>
					<g>
						<path opacity="0.45" fill="none" stroke="#A4A4F7" stroke-miterlimit="10" d="M301.445,157.989
							c0.182,2.594-2.884,4.698-6.85,4.698c-3.965,0-7.324-2.104-7.505-4.698c-0.183-2.596,2.883-4.699,6.848-4.699
							S301.264,155.394,301.445,157.989z"/>
						<path fill="#A4A4F7" d="M298.824,157.989c0.116,1.443-1.83,2.613-4.349,2.613c-2.516,0-4.649-1.17-4.764-2.613
							c-0.116-1.445,1.83-2.617,4.349-2.617C296.576,155.372,298.709,156.544,298.824,157.989z"/>
					</g>
				</g>
				<path fill="#483A99" d="M334.796,94.392c-0.097-0.455-1.106-0.544-2.121-0.417c-1.017,0.129-3.724,0.47-4.279,0.902
					c-0.557,0.433-0.523,0.743-0.821,0.776c-0.291,0.033-0.313-0.27-0.959-0.553c-0.646-0.283-2.208-0.086-3.223,0.042
					c-1.018,0.126-1.98,0.354-1.959,0.817c0.02,0.465,0.197,1.272,0.403,1.402c0.208,0.131,0.208,0.108,1.007,1.943
					c0.445,1.025,1.131,1.615,2.444,1.328c1.672-0.363,1.777-2.266,1.905-3.061c0.131-0.797,0.25-0.914,0.504-0.949
					c0.258-0.033,0.428,0.053,0.749,0.791c0.322,0.736,0.556,2.439,2.267,2.535c2.242,0.128,3.213-0.642,3.523-2.076
					c0.422-1.949,0.324-1.956,0.493-2.132c0.078-0.082,1.676,0.143,1.676,0.143l-0.037-0.583
					C336.369,95.302,334.822,94.508,334.796,94.392z M326.659,98.315c-0.05,0.993-0.547,1.902-1.652,2.041
					c-1.027,0.131-1.497-0.415-2.055-1.732c-0.483-1.145-0.507-2.057-0.332-2.371c0.174-0.316,0.728-0.306,2.004-0.387
					c1.276-0.08,1.703-0.105,1.91,0.455C326.609,96.526,326.708,97.321,326.659,98.315z M333.964,97.239
					c-0.213,1.414-0.73,2.092-2.139,2.26c-1.994,0.238-2.379-0.549-2.673-1.498c-0.295-0.951-0.396-1.744-0.374-1.963
					c0.062-0.598,0.481-0.673,1.737-0.911c1.256-0.239,2.936-0.531,3.183-0.269C333.946,95.12,334.148,96.009,333.964,97.239z"/>
				<g>
					<path fill="#483A99" d="M348.33,91.281c-0.121-1.036-0.308-2.046-0.557-3.001c-0.684-2.617-2.284-4.837-4.678-6.129
						c-3.053-1.652-7.241-1.994-10.583-1.056c-1.938,0.541-2.655,1.563-3.653,1.534c-0.763-0.023-1.718-0.538-2.708-0.893
						c-7.57-2.721-6.301,4.691-5.494,6.727c0.357,0.898,2.072,1.553,2.302,1.927s0.203,2.209,0.349,3.015
						c0.146,0.81,0.941,1.117,0.941,1.117s0.043-2.387,0.082-2.711c0.099-0.85,0.379-1.732,1.117-2.234
						c0.772-0.524,1.827-0.607,2.724-0.766c0.935-0.162,5.28,0.672,5.57,0.924c1.415,1.212,1.78,3.98,2.175,5.607
						c0.188,0.76,0.377,1.271,0.688,1.26c0.235-2.241,1.012-2.298,2.353-1.531c0.716,0.406,1.118,1.826,1.142,3.029
						c0.026,1.424-0.766,2.99-2.259,3.309c-0.537,0.114,1.076,3.17,1.825,3.934c0.244,0.252,0.486,0.516,0.788,0.695
						c0.28,0.164,0.597,0.252,0.912,0.336c0.36,0.099,0.723,0.197,1.082,0.293c0.485,0.133,1.002,0.264,1.485,0.129
						c0.798-0.225,1.22-1.074,1.58-1.82c0.592-1.227,1.272-2.417,1.757-3.689C348.408,98.284,348.719,94.642,348.33,91.281z"/>
				</g>
			</g>
			<path fill="#DDE2FF" d="M197.545,89.411c0,4.189-3.397,6.028-7.588,4.107c-4.188-1.918-7.585-6.869-7.585-11.06
				c0-4.188,3.396-6.028,7.585-4.11C194.148,80.269,197.545,85.222,197.545,89.411z"/>
			<polygon fill="#DDE2FF" points="237.344,106.259 201.114,89.659 201.114,86.544 237.344,103.145 			"/>
			<polygon fill="#DDE2FF" points="237.344,112.425 201.114,95.823 201.114,92.711 237.344,109.312 			"/>
			<path fill="#DDE2FF" d="M222.174,123.038c0-4.19,3.395-6.029,7.585-4.109c4.189,1.919,7.585,6.87,7.585,11.06
				c0,4.19-3.396,6.029-7.585,4.11C225.569,132.179,222.174,127.227,222.174,123.038z"/>
			<polygon fill="#DDE2FF" points="182.373,106.188 218.603,122.791 218.603,125.903 182.373,109.303 			"/>
			<polygon fill="#DDE2FF" points="182.373,100.023 218.603,116.624 218.603,119.737 182.373,103.136 			"/>
			<g>
				<path fill="#FF4B5A" d="M251.755,82.698c0.812,4.324,4.979,7.172,9.304,6.355l20.229-3.805c4.326-0.813,7.172-4.979,6.358-9.303
					l-2.088-11.096c-0.813-4.324-4.979-7.172-9.304-6.358L256.025,62.3c-4.326,0.814-7.171,4.979-6.356,9.304L251.755,82.698z"/>
				<g>
					<path fill="#FFFFFF" d="M260.973,75.312c-0.549-0.607-0.942-1.367-1.105-2.229c-0.469-2.494,1.173-4.895,3.664-5.364
						c1.629-0.308,3.22,0.288,4.257,1.435c0.549-1.445,1.812-2.576,3.442-2.883c2.494-0.469,4.892,1.172,5.361,3.664
						c0.25,1.335-0.104,2.645-0.87,3.645c-0.927,1.479-5.665,7.973-5.665,7.973s-7.552-4.816-8.351-5.506l0,0l0,0
						c-0.269-0.213-0.517-0.459-0.745-0.729L260.973,75.312z"/>
				</g>
			</g>
			<path fill="#0984E3" d="M307.067,10.019l-7.16,0.459l1.186-5.205c0.866-3.639-0.823-5.146-3.199-5.272
				c-0.256-0.015-0.937,0.714-1.031,1.069c-1.196,4.509-4.398,9.29-9.83,12.367l-6.857,2.729c0.322,5.031,0.911,14.225,0.911,14.225
				c13.581-0.123,12.86,2.859,21.886,2.42c5.165-0.251,3.624-2.941,6.238-5.69c2.388-2.512,2.821-4.667,2.667-7.067l1.162-3.561
				C312.715,11.463,311.649,9.724,307.067,10.019z"/>
			<g>
				<path fill="#FFBE9D" d="M116.944,314.093c0.954,3.836,11.533,7.871,10.677-6.091c-0.377-6.194-1.394-40.381-1.588-43.675
					c-0.197-3.295-0.646-8.111-1.939-8.715c-6.488-3.006-17.956,7.407-16.25,19.784
					C108.982,283.667,114.963,306.139,116.944,314.093z"/>
				<path fill="#FFBE9D" d="M89.368,316.53c-0.288,3.995,8.533,12.249,12.005-1.081c1.542-5.914,8.135-40.862,8.961-44.002
					c0.825-3.148,0.601-9.641-0.418-10.796c-5.091-5.775-16.581-0.693-18.783,11.562C89.657,280.405,89.967,308.248,89.368,316.53z"
					/>
				<path fill="#D3CFFF" d="M61.438,379.656c0,4.796,19.053,8.687,42.561,8.687c23.505,0,42.559-3.891,42.559-8.687
					c0-4.807-19.054-8.697-42.559-8.697C80.491,370.959,61.438,374.85,61.438,379.656z"/>
				<path fill="#4A41A3" d="M90.837,263.62c0,0-5.816-17.102,10.686-31.19c0,0,8.845,3.522,15.927,3.943
					c5.576,0.337,8.41-0.179,8.41-0.179s0.47,15.195,0.489,23.382L90.837,263.62z"/>
				<path fill="#3960DA" d="M96.72,237.325c0,0-12.485,13.037-12.485,38.817c0,17.581-5.729,20.013-5.729,20.013
					s10.298,25.224,55.619,6.26c0,0-5.289-13.213-6.452-28.435c-1.168-15.222-2.548-35.765-2.548-35.765s-23.894,0.014-28.734-1.673
					"/>
				<g>
					<g>
						<path fill="#FFFFFF" d="M101.42,245.718c0.76,0,0.76-1.175,0-1.175C100.662,244.543,100.662,245.718,101.42,245.718
							L101.42,245.718z"/>
					</g>
					<g>
						<path fill="#FFFFFF" d="M93.32,253.619c0.759,0,0.759-1.175,0-1.175C92.563,252.444,92.563,253.619,93.32,253.619
							L93.32,253.619z"/>
					</g>
					<g>
						<path fill="#FFFFFF" d="M100.432,257.769c0.758,0,0.758-1.176,0-1.176C99.672,256.593,99.672,257.769,100.432,257.769
							L100.432,257.769z"/>
					</g>
					<g>
						<path fill="#FFFFFF" d="M103.198,271.399c0.759,0,0.759-1.177,0-1.177C102.44,270.223,102.44,271.399,103.198,271.399
							L103.198,271.399z"/>
					</g>
					<g>
						<path fill="#FFFFFF" d="M112.876,256.188c0.76,0,0.76-1.176,0-1.176C112.119,255.012,112.119,256.188,112.876,256.188
							L112.876,256.188z"/>
					</g>
					<g>
						<path fill="#FFFFFF" d="M121.173,265.867c0.759,0,0.759-1.177,0-1.177S120.415,265.867,121.173,265.867L121.173,265.867z"/>
					</g>
					<g>
						<path fill="#FFFFFF" d="M112.68,265.472c0.759,0,0.759-1.178,0-1.178C111.92,264.294,111.92,265.472,112.68,265.472
							L112.68,265.472z"/>
					</g>
					<g>
						<path fill="#FFFFFF" d="M90.555,268.436c0.758,0,0.758-1.176,0-1.176C89.796,267.26,89.796,268.436,90.555,268.436
							L90.555,268.436z"/>
					</g>
					<g>
						<path fill="#FFFFFF" d="M87.989,281.473c0.756,0,0.756-1.176,0-1.176C87.229,280.297,87.229,281.473,87.989,281.473
							L87.989,281.473z"/>
					</g>
					<g>
						<path fill="#FFFFFF" d="M99.84,281.866c0.756,0,0.756-1.175,0-1.175C99.08,280.691,99.08,281.866,99.84,281.866L99.84,281.866
							z"/>
					</g>
					<g>
						<path fill="#FFFFFF" d="M116.038,273.769c0.757,0,0.757-1.176,0-1.176C115.278,272.593,115.278,273.769,116.038,273.769
							L116.038,273.769z"/>
					</g>
					<g>
						<path fill="#FFFFFF" d="M116.434,294.312c0.756,0,0.756-1.176,0-1.176C115.672,293.137,115.672,294.312,116.434,294.312
							L116.434,294.312z"/>
					</g>
					<g>
						<path fill="#FFFFFF" d="M109.716,281.866c0.757,0,0.757-1.175,0-1.175C108.958,280.691,108.958,281.866,109.716,281.866
							L109.716,281.866z"/>
					</g>
					<g>
						<path fill="#FFFFFF" d="M120.975,284.831c0.758,0,0.758-1.177,0-1.177S120.217,284.831,120.975,284.831L120.975,284.831z"/>
					</g>
					<g>
						<path fill="#FFFFFF" d="M108.135,289.968c0.758,0,0.758-1.177,0-1.177S107.377,289.968,108.135,289.968L108.135,289.968z"/>
					</g>
					<g>
						<path fill="#FFFFFF" d="M100.432,297.67c0.758,0,0.758-1.175,0-1.175C99.672,296.495,99.672,297.67,100.432,297.67
							L100.432,297.67z"/>
					</g>
					<g>
						<path fill="#FFFFFF" d="M93.32,301.818c0.759,0,0.759-1.175,0-1.175C92.563,300.644,92.563,301.818,93.32,301.818
							L93.32,301.818z"/>
					</g>
					<g>
						<path fill="#FFFFFF" d="M84.827,296.09c0.758,0,0.758-1.175,0-1.175C84.067,294.915,84.067,296.09,84.827,296.09
							L84.827,296.09z"/>
					</g>
					<g>
						<path fill="#FFFFFF" d="M94.9,290.758c0.759,0,0.759-1.178,0-1.178C94.142,289.58,94.142,290.758,94.9,290.758L94.9,290.758z"
							/>
					</g>
					<g>
						<path fill="#FFFFFF" d="M104.778,306.361c0.758,0,0.758-1.177,0-1.177C104.019,305.185,104.019,306.361,104.778,306.361
							L104.778,306.361z"/>
					</g>
					<g>
						<path fill="#FFFFFF" d="M111.099,300.24c0.757,0,0.757-1.179,0-1.179C110.339,299.062,110.339,300.24,111.099,300.24
							L111.099,300.24z"/>
					</g>
					<g>
						<path fill="#FFFFFF" d="M117.815,303.992c0.759,0,0.759-1.177,0-1.177C117.059,302.815,117.059,303.992,117.815,303.992
							L117.815,303.992z"/>
					</g>
					<g>
						<path fill="#FFFFFF" d="M124.531,299.645c0.759,0,0.759-1.175,0-1.175C123.773,298.47,123.773,299.645,124.531,299.645
							L124.531,299.645z"/>
					</g>
					<g>
						<path fill="#FFFFFF" d="M125.322,290.953c0.757,0,0.757-1.175,0-1.175C124.562,289.778,124.562,290.953,125.322,290.953
							L125.322,290.953z"/>
					</g>
					<g>
						<path fill="#FFFFFF" d="M125.716,274.953c0.758,0,0.758-1.177,0-1.177C124.957,273.776,124.957,274.953,125.716,274.953
							L125.716,274.953z"/>
					</g>
					<g>
						<path fill="#FFFFFF" d="M123.148,254.607c0.76,0,0.76-1.176,0-1.176C122.389,253.432,122.389,254.607,123.148,254.607
							L123.148,254.607z"/>
					</g>
					<g>
						<path fill="#FFFFFF" d="M112.481,244.929c0.76,0,0.76-1.176,0-1.176C111.724,243.753,111.724,244.929,112.481,244.929
							L112.481,244.929z"/>
					</g>
					<g>
						<path fill="#FFFFFF" d="M106.36,252.041c0.755,0,0.755-1.177,0-1.177C105.598,250.864,105.598,252.041,106.36,252.041
							L106.36,252.041z"/>
					</g>
					<g>
						<path fill="#FFFFFF" d="M97.863,240.78c0.759,0,0.759-1.176,0-1.176C97.106,239.604,97.106,240.78,97.863,240.78
							L97.863,240.78z"/>
					</g>
					<g>
						<path fill="#FFFFFF" d="M94.704,274.757c0.758,0,0.758-1.177,0-1.177C93.944,273.58,93.944,274.757,94.704,274.757
							L94.704,274.757z"/>
					</g>
					<g>
						<path fill="#FFFFFF" d="M102.209,263.3c0.758,0,0.758-1.176,0-1.176S101.452,263.3,102.209,263.3L102.209,263.3z"/>
					</g>
					<g>
						<path fill="#FFFFFF" d="M92.135,260.336c0.758,0,0.758-1.176,0-1.176S91.377,260.336,92.135,260.336L92.135,260.336z"/>
					</g>
					<g>
						<path fill="#FFFFFF" d="M110.309,274.361c0.758,0,0.758-1.175,0-1.175C109.549,273.187,109.549,274.361,110.309,274.361
							L110.309,274.361z"/>
					</g>
				</g>
				<path fill="#FFBE9D" d="M127.686,312.668c0.317-9.392-7.973-8.16-11.028-1.145c-6.324,14.509,2.331,47.922,3.475,63.755
					c1.187,0.57,3.18,1.008,4.378,0.337c0.823-0.462,1.27-1.728,1.27-1.728C125.597,354.465,127.342,322.711,127.686,312.668z"/>
				<path fill="#FFBE9D" d="M100.333,319.414c2.389-8.822-5.567-10.469-10.037-5.062c-10.475,12.659-10.693,42.732-13.182,58.23
					c1.475,1.306,3.811,1.791,4.623,1.741c0.863-0.051,1.254-0.812,1.254-0.812C87.161,354.955,97.775,328.847,100.333,319.414z"/>
				<g>
					<g>
						<path fill="#F2A181" d="M134.805,180.603c-0.301-0.318-0.601-0.635-0.872-0.979c-2.088-2.678-2.394-5.045-4.333-8.15
							c-0.277-0.446-0.667-1.629-1.407-2.693c-0.773-1.114-2.655-2.32-3.142-2.576c-0.907-0.474-0.128,1.52-0.128,1.52
							s-0.769-1.111-1.512-1.034c-0.29,0.031-0.341,1.733-0.345,2.025c-0.038,2.333,0.515,4.679,1.589,6.754
							c0.251,0.487,0.538,0.985,0.538,1.534c-0.687-0.014-1.266-0.491-1.823-0.899c-0.558-0.405-1.256-0.778-1.909-0.554
							c0.09,0.275,0.229,0.537,0.369,0.796c0.825,1.552,1.752,3.202,3.339,3.955c0.949,0.448,2.046,0.53,2.972,1.022
							c1.673,0.889,2.486,2.946,4.186,3.787"/>
					</g>
					<path fill="#5E5DBB" d="M124.874,181.201l4.984-2.083c0.465-0.195,0.683-0.729,0.488-1.195l-4.43-10.59
						c-0.193-0.465-0.729-0.686-1.192-0.491l-4.987,2.085c-0.464,0.195-0.681,0.729-0.488,1.192l4.43,10.594
						C123.874,181.179,124.407,181.399,124.874,181.201z"/>
					
						<rect x="121.587" y="168.159" transform="matrix(-0.9226 0.3857 -0.3857 -0.9226 306.7422 286.657)" fill="#B4B4DB" width="6.059" height="11.877"/>
					<path fill="#FF7AA2" d="M119.53,191.421c0,0,4.27,0.219,8.077,1.363c5.744,1.727,7.722,4.387,9.707,5.484
						c-3.856-4.897-8.154-15.286-8.154-15.286s5.183-4.261,5.78-3.251c0.596,1.008,22.355,26.469,21.673,30.59
						c-0.281,1.701-2.801,3.381-5.028,3.305c-6.169-0.213-13.333-2.458-20.844-4.916c-3.303-1.078-4.321,1.252-4.321,1.252"/>
					<path fill="#E55E88" d="M137.314,198.269c0,0,2.74,5.525,3.565,5.885c0.821,0.362-1.999-1.149-3.545-2.742
						c-1.542-1.595-3.652-5.777-3.652-5.777C134.491,195.964,137.314,198.269,137.314,198.269z"/>
					<g>
						<path fill="#F2A181" d="M128.716,171.509c-0.267,0.188-0.338,0.547-0.387,0.87c-0.189,1.224-0.367,2.521,0.105,3.661
							c0.31,0.74,0.869,1.348,1.476,1.877c0.682,0.596,1.438,1.113,2.241,1.531"/>
					</g>
					<g>
						<path fill="#170D54" d="M119.395,162.319c1.455,0.418,2.223,2.296,2.717,3.58c0.595,1.545,0.894,3.191,1.087,4.83
							c0.136,1.141,0.217,2.342-0.236,3.397c-0.23,0.54-0.592,1.013-0.948,1.477c-0.203,0.267-0.409,0.536-0.683,0.722
							c-0.276,0.187-0.637,0.281-0.948,0.162c-0.452-0.174-0.635-0.707-0.762-1.174c-0.839-3.051-1.754-6.135-3.477-8.79"/>
					</g>
					<g>
						<path fill="#F2A181" d="M121.01,171.978c0.027-0.968,1.049-1.602,1.938-0.598c0.731,0.834,0.927,2.412,0.968,3.582
							c0.05,1.4-1.033,1.675-1.927,1.869"/>
					</g>
					<path fill="#FF7AA2" d="M125.677,234.114c1.233,1.619,1.678,1.848,1.092,3.677c-0.395,1.235-8.164,2.261-12.729,2.261
						c-5.127,0-16.053-0.656-17.648-2.217c-0.718-0.697,0.812-1.725,0.812-4.121c0-2.398-2.297-12.34-3.195-16.35
						c-1.194-5.335,2.572-20.035,3.39-21.546c1.593-2.954,12.979-4.452,18.224-4.594c7.609-0.202,13.304,2.652,15.098,4.389
						c0,0-3.817,6.428-2.137,9.175c1.678,2.746,4.841,7.573-1.582,12.234C127,217.022,123.171,230.812,125.677,234.114z"/>
					<path fill="#E55E88" d="M98.022,208.13c-0.546,0.953-4.24,5.961-4.24,5.961l-0.149,0.6c0.091,1.037,0.214,1.952,0.376,2.674
						c0.898,4.01,3.195,13.951,3.195,16.35c0,2.396-1.465,3.381-0.812,4.121c1.255,1.439,21.856,4.674,20.843,0.657
						c-0.089-0.364-17.289-11.421-17.383-11.793c-0.792-3.171-1.481-5.457-1.829-7.772C97.185,213.356,98.565,207.175,98.022,208.13
						z"/>
					<path fill="#FFBE9D" d="M119.768,184.657c0,0,0.047,5.975,0.288,6.213c0.241,0.244,1.421,0.799,1.421,0.799
						s-0.367,17.026-1.666,16.642c-1.303-0.384-10.365-16.558-10.365-16.558s1.219-0.496,1.219-0.98
						c0-0.479-1.157-9.869-1.157-9.869"/>
					<path fill="#FFBE9D" d="M113.801,162.964c1.253,0.344,4.552-0.342,5.462,1.025c0.911,1.363,1.707,4.664,2.049,5.573
						c0.679,1.815,1.12,3.749,1.615,5.618c0.645,2.432,1.704,6.893-0.676,8.93c-0.686,0.584-0.99,0.775-1.841,0.93
						c-1.127,0.205-3.821-1.094-4.951-0.893c-1.746,0.312-2.106,2.213-3.842,1.645c-2.317-0.752-3.589-3.938-4.187-6.102
						l-3.413-12.402L113.801,162.964z"/>
					<g>
						<g>
							<path fill="#F2A181" d="M118.273,247.318c2.606,0.391,3.568,1.36,5.036,2.81c0.12,0.117,0.247,0.268,0.221,0.434
								c-0.033,0.205-0.278,0.3-0.485,0.332c-1.211,0.193-1.408-0.579-2.538-1.049c-0.764-0.322-1.521-0.652-2.281-0.981"/>
						</g>
						<g>
							<g>
								<path fill="#A892FF" d="M127.119,228.335l-9.23,29.582c-0.247,0.797,0.204,1.481,0.979,1.486l19.258,1.692
									c0.69,0.001,1.394-0.538,1.613-1.243l9.926-29.139c0.249-0.791-0.897-1.928-1.671-1.932l-19.261-1.689
									C128.042,227.086,127.34,227.628,127.119,228.335z"/>
							</g>
							<g>
								<path fill="#9479FF" d="M127.75,229.106l-9.101,29.127c-0.25,0.795,0.202,1.484,0.978,1.488l19.26,1.689
									c0.689,0.004,1.393-0.537,1.611-1.248l9.105-29.123c0.248-0.795-0.203-1.48-0.979-1.486l-19.26-1.692
									C128.674,227.858,127.973,228.401,127.75,229.106z"/>
							</g>
							<g>
								<polygon fill="#FFFFFF" points="143.136,228.16 142.456,230.714 133.445,229.921 134.185,227.377 								"/>
								<g>
									<g>
										<path fill="#FFFFFF" d="M139.985,223.335c-1.188-0.109-2.465,0.811-2.854,2.057l-0.902,2.889l4.3,0.399
											c0,0,0.716-2.295,0.903-2.89C141.819,224.542,141.174,223.446,139.985,223.335z M138.878,226.886
											c-0.666-0.064-1.03-0.679-0.813-1.378c0.22-0.7,0.937-1.216,1.603-1.153c0.666,0.062,1.029,0.678,0.811,1.375
											C140.258,226.429,139.544,226.944,138.878,226.886z"/>
									</g>
								</g>
							</g>
						</g>
						<g>
							<path fill="#FFBE9D" d="M110.934,245.249c2.023,0.423,7.407,2.031,7.973,2.297c0.675,0.318,2.904,2.01,3.433,2.538
								c2.027,2.032,0.987,2.98,1.788,5.736c0.042,0.142,0.051,0.289,0.051,0.438c0.002,0.286-0.389,0.535-0.78,0.269
								c-0.209,0.355-0.835,0.135-1.139-0.253c0.003,0.273-0.382,0.448-1.001,0.104c-0.334-0.184-0.275-0.168-1.049-0.856
								c-0.553-0.494-1.195-0.884-2.192-1.333c-0.671-0.305-1.524-0.577-2.136-0.979c-0.819-0.54-2.279-0.667-2.997-3.001
								c-0.158-0.516-0.666-0.836-1.124-1.123c-1.098-0.685-2.196-1.376-3.295-2.064"/>
						</g>
						<path fill="#FF7AA2" d="M98.52,207.353c-0.857,3.057-4.421,24.229-4.421,24.229l20.076,14.54l-1.672,4.391
							c0,0-24.021-8.066-25.913-13.581c-1.892-5.51,1.088-29.498,7.76-38.237c2.122-2.78,6.379-4.181,6.379-4.181"/>
						<g>
							<path fill="#F2A181" d="M119.109,252.876c0,0,0.235,0.138,0.588,0.344c0.174,0.107,0.368,0.248,0.579,0.395
								c0.215,0.151,0.413,0.359,0.589,0.56c0.192,0.189,0.345,0.427,0.503,0.628c0.155,0.202,0.283,0.402,0.396,0.572
								c0.23,0.334,0.366,0.574,0.366,0.574s-0.205-0.182-0.487-0.48c-0.28-0.303-0.608-0.724-0.954-1.137
								c-0.168-0.221-0.351-0.399-0.533-0.568c-0.191-0.164-0.369-0.318-0.528-0.445
								C119.316,253.053,119.109,252.876,119.109,252.876z"/>
						</g>
						<g>
							<path fill="#F2A181" d="M120.216,251.544c0,0,0.31,0.156,0.675,0.537c0.182,0.186,0.377,0.416,0.581,0.668
								c0.102,0.127,0.196,0.265,0.293,0.406c0.093,0.133,0.198,0.312,0.266,0.454c0.309,0.612,0.58,1.243,0.811,1.698
								c0.221,0.461,0.348,0.783,0.348,0.783s-0.205-0.276-0.483-0.714c-0.136-0.22-0.31-0.47-0.444-0.762
								c-0.144-0.287-0.307-0.589-0.444-0.903c-0.075-0.171-0.144-0.285-0.237-0.436c-0.093-0.139-0.183-0.275-0.271-0.408
								c-0.179-0.264-0.353-0.506-0.514-0.703C120.5,251.749,120.216,251.544,120.216,251.544z"/>
						</g>
						<g>
							<path fill="#F2A181" d="M121.485,250.468c0,0,0.211,0.257,0.578,0.597c0.18,0.175,0.386,0.378,0.59,0.628
								c0.201,0.284,0.312,0.575,0.47,0.877c0.277,0.615,0.473,1.264,0.574,1.754c0.087,0.498,0.118,0.83,0.118,0.83
								s-0.123-0.314-0.268-0.789c-0.085-0.234-0.191-0.503-0.283-0.798c-0.113-0.288-0.24-0.588-0.354-0.897
								c-0.143-0.293-0.261-0.633-0.398-0.873c-0.171-0.25-0.374-0.464-0.526-0.66C121.664,250.751,121.485,250.468,121.485,250.468
								z"/>
						</g>
					</g>
					<g>
						<path fill="#3B2E7A" d="M106.15,177.538c0.788-0.459,1.39-0.947,1.903-0.191c0.272,0.399,0.437,0.953,0.9,1.088
							c0.459,0.136,0.246-4.194-0.069-5.211c0,0-0.77-4.226,0.562-6.15c0,0,4.666,3.629,12.517,1.556c0,0,0.815-3.481-1.554-6.964
							c-2.372-3.48-9.871-5.209-14.861-0.418c-1.474,1.412-3.403,1.379-3.347,4.4c-0.056,0.195-0.216,0.343-0.366,0.479
							c-1.649,1.518-2.363,3.363-2.572,6.1c0,0,1.071,6.292-5.842,9.779c-6.915,3.488-12.938,18.305-0.888,21.762
							c12.049,3.457,19.604-15.568,16.913-20.427c-0.293-0.529-1.28-1.683-1.639-2.17"/>
					</g>
					<g>
						<path fill="#FFBE9D" d="M109.165,180.706c0,0,0.136,0.559-0.219,1.001c-0.307,0.39-0.932,0.333-1.359,0.194
							c-1.223-0.396-2.065-1.588-2.296-2.816c-0.271-1.447,0.507-2.9,1.835-2.521c0.777,0.219,1.261,1.098,1.252,1.904"/>
					</g>
					<g>
						<path fill="#F2A181" d="M119.762,185.167l-6.54-1.65c0,0,4.08,3.711,6.589,3.711"/>
					</g>
				</g>
				<path fill="#3960DA" d="M119.879,372.521c0,0,1.226,1.726,5.9,1.367c0,0,10.801,4.531,10.702,6.728s-17.58,0-17.58,0
					S118.486,375.857,119.879,372.521z"/>
				<path fill="#3960DA" d="M77.114,370.959c0,0,2.655,3.43,5.877,2.554c0,0,9.64,6.631,8.749,9.397
					c-0.888,2.767-17.977-5.335-17.977-5.335S73.845,373.428,77.114,370.959z"/>
				<path fill="#FE6D93" d="M102.708,215.222c0,0,1.697,10.631,14.563,7.29c0,0-5.31,4.179-11.037,0.813
					C100.506,219.963,102.708,215.222,102.708,215.222z"/>
				<g>
					<path fill="#E24771" d="M120.555,209.292c0.55,0,1.081-0.063,1.63-0.074c0.758,0.412,1.518,0.824,2.276,1.235
						c0.371,0.659,0.231,1.086-0.425,1.284c-2.167,0.21-3.709-1.953-5.521-2.857c-1.668-0.835-5.442-0.604-6.376,1.369
						c-0.817,1.738-0.414,2.664,1.344,3.262c2.738,0.93,4.246-2.629,6.414-3.354c-0.15-0.356-0.301-0.713-0.452-1.074
						c-1.023,0.485-1.206,1.715-1.372,2.725c-0.414,2.494,0.091,5.083-0.825,7.481c-0.271,0.709,0.866,1.013,1.134,0.312
						c0.513-1.336,0.607-2.581,0.615-4.008c0.006-1.266-0.276-4.869,1.041-5.492c0.604-0.285,0.178-1.285-0.452-1.075
						c-1.019,0.339-1.817,0.612-2.519,1.457c-0.544,0.655-0.91,1.128-1.604,1.63c-1.039,0.752-4.235-0.174-1.574-1.863
						c3.973-2.519,6.383,2.717,10.148,2.664c1.778-0.026,1.88-1.301,1.559-2.772c-0.537-2.487-3.134-2.024-5.04-2.024
						C119.798,208.116,119.798,209.292,120.555,209.292L120.555,209.292z"/>
				</g>
				<g>
					<path fill="#E24771" d="M119.604,209.665c2.227,2.96,2.79,6.141,3.273,9.714c0.102,0.749,1.235,0.43,1.135-0.312
						c-0.497-3.661-1.113-6.964-3.393-9.991C120.169,208.476,119.147,209.062,119.604,209.665L119.604,209.665z"/>
				</g>
				<g>
					<path fill="#E24771" d="M120.842,191.714c0.127,0.037-0.001,2.237,0.382,2.59c0.518,0.48-0.413,1.631-0.413,2.154
						c0,0.467,1.189,1.861,0.708,2.107c-0.793,0.408-1.304,0.697-1.478,1.59c-0.084,0.434,0.934,1.584,0.559,1.881
						c-0.452,0.354-0.866,0.762-0.686,1.415c0.458,1.67,0.273,0.989,0,1.985c-0.168,0.605,0.416,1.314,0.484,1.291
						c-0.715,0.24-0.408,1.375,0.312,1.135c0.497-0.165,0.713-0.199,1.074-0.494c0.145-0.115,0.226-0.398,0.15-0.571
						c-0.15-0.36-0.889-0.938-0.668-1.16c0.56-0.559,0.585-1.271,0.166-1.935c-0.513-0.812,0.921-1.276,0.661-2.219
						c-0.074-0.266-0.291-0.466-0.458-0.677c-0.848-1.091,0.982-1.143,1.288-1.667c0.512-0.875,0.226-1.188-0.397-1.963
						c-0.979-1.213,0.576-1.17,0.447-2.11c-0.09-0.647-0.064-0.575-0.432-1.104c-0.243-0.352-0.172-1.843-0.215-2.369
						c-0.054-0.636-0.652-0.863-1.172-1.012C120.427,190.37,120.118,191.505,120.842,191.714L120.842,191.714z"/>
				</g>
				<g>
					<path fill="#E24771" d="M108.703,192.771c1.075-0.133-0.132,2.358,1.458,2.796c0.844,0.23,2.47-0.227,2.326,1.655
						c-0.021,0.263-0.18,0.8,0.005,1.111c0.437,0.741,1.26,0.946,2.065,1.032c-0.425-0.047-0.703,2.089-0.643,2.308
						c0.232,0.838,0.992,1.136,1.745,1.302c0.657,0.143,0.043,2.483,0.425,3.136c0.377,0.639,1.869,0.723,1.668,1.038
						c-0.112,0.176-0.1,0.412,0,0.592c0.409,0.742,1.074,0.686,1.906,0.861c0.74,0.16,1.054-0.975,0.312-1.131
						c-2.237-0.48-0.331,0.315-0.908-0.842c-0.119-0.245-0.245-0.65-0.574-0.715c-1.442-0.287-0.982-1.176-0.976-2.045
						c0.003-1.17-0.483-1.587-1.542-2.03c-1.503-0.63,0.393-2.321-0.406-3.183c-0.956-1.028-1.986-0.354-1.828-2.398
						c0.054-0.699-0.534-1.384-1.183-1.547c-0.528-0.137-2.433,0.014-1.937-1.046c0.16-0.338,0.121-0.776,0.024-1.13
						c-0.253-0.917-1.177-1.033-1.939-0.939C107.962,191.689,107.953,192.868,108.703,192.771L108.703,192.771z"/>
				</g>
			</g>
		</g>
	</g>
</g>
</svg>
